# Alias OBJ Model File
# Exported from SketchUp, (c) 2000-2012 Trimble Navigation Limited
# File units = meters

mtllib book.mtl

g Mesh1 Model

usemtl FrontColor
v -0.1 -2.00371e-32 -0.34
vt 3.93701 13.3858
vn -7.03685e-18 -1 -6.58002e-18
v -0.0866139 9.02389e-17 -0.34
vt 3.40999 13.3858
v -0.0866139 9.02389e-17 0.262191
vt 3.40999 -10.3225
v -0.0837176 9.02389e-17 0.288073
vt 3.29597 -11.3415
v -0.075226 9.02389e-17 0.312191
vt 2.96165 -12.291
v -0.0617179 9.02389e-17 0.332902
vt 2.42984 -13.1064
v -0.0441139 9.02389e-17 0.348794
vt 1.73677 -13.732
v -0.0236135 9.02389e-17 0.358784
vt 0.929665 -14.1254
v -0.00161387 9.02389e-17 0.362191
vt 0.0635382 -14.2595
v 0.0203857 9.02389e-17 0.358784
vt -0.802589 -14.1254
v 0.0408861 9.02389e-17 0.348794
vt -1.60969 -13.732
v 0.0584902 9.02389e-17 0.332902
vt -2.30276 -13.1064
v 0.0719983 9.02389e-17 0.312191
vt -2.83458 -12.291
v 0.0804898 9.02389e-17 0.288073
vt -3.16889 -11.3415
v 0.0833861 9.02389e-17 0.262191
vt -3.28292 -10.3225
v 0.0833861 9.02389e-17 -0.34
vt -3.28292 13.3858
v 0.1 -2.00371e-32 -0.34
vt -3.93701 13.3858
v 0.1 0 0.28
vt -3.93701 -11.0236
v 0.0965926 0 0.305882
vt -3.80286 -12.0426
v 0.0866025 0 0.33
vt -3.40955 -12.9921
v 0.0707107 0 0.350711
vt -2.78388 -13.8075
v 0.05 0 0.366603
vt -1.9685 -14.4332
v 0.0258819 0 0.376593
vt -1.01897 -14.8265
v 2.81997e-17 0 0.38
vt -1.11022e-15 -14.9606
v -0.0258819 0 0.376593
vt 1.01897 -14.8265
v -0.05 0 0.366603
vt 1.9685 -14.4332
v -0.0707107 0 0.350711
vt 2.78388 -13.8075
v -0.0866025 0 0.33
vt 3.40955 -12.9921
v -0.0965926 0 0.305882
vt 3.80286 -12.0426
v -0.1 0 0.28
vt 3.93701 -11.0236
f 1/1/1 2/2/1 3/3/1 4/4/1 5/5/1 6/6/1 7/7/1 8/8/1 9/9/1 10/10/1 11/11/1 12/12/1 13/13/1 14/14/1 15/15/1 16/16/1 17/17/1 18/18/1 19/19/1 20/20/1 21/21/1 22/22/1 23/23/1 24/24/1 25/25/1 26/26/1 27/27/1 28/28/1 29/29/1 30/30/1 

v -0.0866139 0.74 -0.34
vt 3.40999 29.1339
vn 1.34825e-14 0 -1
vt 3.40999 3.55271e-15
vt 3.93701 -7.88861e-31
v -0.1 0.74 -0.34
vt 3.93701 29.1339
f 31/31/2 2/32/2 1/33/2 32/34/2 

vt 13.3858 29.1339
vn 1 1.85881e-33 1.3112e-16
v -0.0866139 0.74 0.262191
vt -10.3225 29.1339
vt -10.3225 3.55271e-15
vt 13.3858 3.55271e-15
f 31/35/3 33/36/3 3/37/3 2/38/3 

v 0.1 0.74 -0.34
vn -7.03685e-18 1 -6.58002e-18
v 0.0833861 0.74 -0.34
vt 3.28292 13.3858
v 0.0833861 0.74 0.262191
vt 3.28292 -10.3225
v 0.0804898 0.74 0.288073
vt 3.16889 -11.3415
v 0.0719983 0.74 0.312191
vt 2.83458 -12.291
v 0.0584902 0.74 0.332902
vt 2.30276 -13.1064
v 0.0408861 0.74 0.348794
vt 1.60969 -13.732
v 0.0203857 0.74 0.358784
vt 0.802589 -14.1254
v -0.00161387 0.74 0.362191
vt -0.0635382 -14.2595
v -0.0236135 0.74 0.358784
vt -0.929665 -14.1254
v -0.0441139 0.74 0.348794
vt -1.73677 -13.732
v -0.0617179 0.74 0.332902
vt -2.42984 -13.1064
v -0.075226 0.74 0.312191
vt -2.96165 -12.291
v -0.0837176 0.74 0.288073
vt -3.29597 -11.3415
vt -3.40999 -10.3225
vt -3.40999 13.3858
v -0.1 0.74 0.28
v -0.0965926 0.74 0.305882
v -0.0866025 0.74 0.33
v -0.0707107 0.74 0.350711
v -0.05 0.74 0.366603
v -0.0258819 0.74 0.376593
v 2.81997e-17 0.74 0.38
vt 1.31523e-15 -14.9606
v 0.0258819 0.74 0.376593
v 0.05 0.74 0.366603
v 0.0707107 0.74 0.350711
v 0.0866025 0.74 0.33
v 0.0965926 0.74 0.305882
v 0.1 0.74 0.28
f 34/1/4 35/39/4 36/40/4 37/41/4 38/42/4 39/43/4 40/44/4 41/45/4 42/46/4 43/47/4 44/48/4 45/49/4 46/50/4 47/51/4 33/52/4 31/53/4 32/17/4 48/18/4 49/19/4 50/20/4 51/21/4 52/22/4 53/23/4 54/54/4 55/25/4 56/26/4 57/27/4 58/28/4 59/29/4 60/30/4 

vt -3.93701 -7.88861e-31
vn -1.08631e-14 0 -1
vt -3.28292 3.55271e-15
vt -3.28292 29.1339
vt -3.93701 29.1339
f 17/55/5 16/56/5 35/57/5 34/58/5 

vt 10.3225 29.1339
vn -1 0 1.87314e-17
vt -13.3858 29.1339
vt -13.3858 3.55271e-15
vt 10.3225 3.55271e-15
f 36/59/6 35/60/6 16/61/6 15/62/6 

vt 10.9187 29.1339
vn -0.974798 -8.265e-34 -0.223091
vt 9.89337 29.1339
vn -0.993797 8.26875e-34 -0.11121
vt 9.89337 3.55271e-15
vt 10.9187 3.55271e-15
f 37/63/7 36/64/8 15/65/8 14/66/7 

vt 10.6521 29.1339
vn -0.896835 2.84762e-33 -0.442365
vt 9.6454 29.1339
vt 9.6454 3.55271e-15
vt 10.6521 3.55271e-15
f 38/67/9 37/68/7 14/69/7 13/70/9 

vt 9.71978 29.1339
vn -0.760181 4.09604e-33 -0.649712
vt 8.74629 29.1339
vt 8.74629 3.55271e-15
vt 9.71978 3.55271e-15
f 39/71/10 38/72/9 13/73/9 12/74/10 

vt 8.00682 29.1339
vn -0.559585 -2.05593e-34 -0.828773
vt 7.07311 29.1339
vt 7.07311 3.55271e-15
vt 8.00682 3.55271e-15
f 40/75/11 39/76/10 12/77/10 11/78/11 

vt 5.46633 29.1339
vn -0.298914 7.22506e-33 -0.95428
vt 4.5685 29.1339
vt 4.5685 3.55271e-15
vt 5.46633 3.55271e-15
f 41/79/12 40/80/11 11/81/11 10/82/12 

vt 2.24535 29.1339
vn -1.9801e-15 7.43523e-33 -1
vt 1.3689 29.1339
vt 1.3689 3.55271e-15
vt 2.24535 3.55271e-15
f 42/83/13 41/84/12 10/85/12 9/86/13 

vt -1.24332 29.1339
vn 0.298914 0 -0.95428
vt -2.11977 29.1339
vt -2.11977 3.55271e-15
vt -1.24332 3.55271e-15
f 43/87/14 42/88/13 9/89/13 8/90/14 

vt -4.45426 29.1339
vn 0.559585 -3.54081e-19 -0.828773
vt -5.3521 29.1339
vt -5.3521 3.55271e-15
vt -4.45426 3.55271e-15
f 44/91/15 43/92/14 8/93/14 7/94/15 

vt -6.97878 29.1339
vn 0.760181 -3.53544e-19 -0.649712
vt -7.91249 29.1339
vt -7.91249 3.54475e-15
vt -6.97878 3.54475e-15
f 45/95/16 44/96/15 7/97/15 6/98/16 

vt -8.67687 29.1339
vn 0.896835 -1.24352e-33 -0.442365
vt -9.65035 29.1339
vt -9.65035 3.55271e-15
vt -8.67687 3.55271e-15
f 46/99/17 45/100/16 6/101/16 5/102/17 

vt -9.60319 29.1339
vn 0.974798 -8.265e-34 -0.223091
vt -10.6099 29.1339
vt -10.6099 3.55271e-15
vt -9.60319 3.55271e-15
f 47/103/18 46/104/17 5/105/17 4/106/18 

vt -9.87924 29.1339
vn 0.993797 8.26875e-34 -0.11121
vt -10.9046 29.1339
vt -10.9046 3.55271e-15
vt -9.87924 3.55271e-15
f 33/107/19 47/108/18 4/109/18 3/110/19 

vt -11.0236 0
vn 1 0 3.63867e-17
vt 13.3858 -7.88861e-31
vt -11.0236 29.1339
f 18/111/20 17/112/20 34/35/20 60/113/20 

vt -11.4432 0
vn 0.965926 0 0.258819
vt -10.4154 0
vn 0.991445 0 0.130526
vt -10.4154 29.1339
vt -11.4432 29.1339
f 19/114/21 18/115/22 60/116/22 59/117/21 

vt -10.6984 0
vn 0.866025 0 0.5
vt -9.67062 0
vt -9.67062 29.1339
vt -10.6984 29.1339
f 20/118/23 19/119/21 59/120/21 58/121/23 

vt -9.25951 0
vn 0.707107 0 0.707107
vt -8.23174 0
vt -8.23174 29.1339
vt -9.25951 29.1339
f 21/122/24 20/123/23 58/124/23 57/125/24 

vt -7.22464 0
vn 0.5 0 0.866025
vt -6.19687 0
vt -6.19687 29.1339
vt -7.22464 29.1339
f 22/126/25 21/127/24 57/128/24 56/129/25 

vt -4.73244 0
vn 0.258819 0 0.965926
vt -3.70467 0
vt -3.70467 29.1339
vt -4.73244 29.1339
f 23/130/26 22/131/25 56/132/25 55/133/26 

vt -1.95275 0
vn -2.79951e-17 0 1
vt -0.924989 0
vt -0.924989 29.1339
vt -1.95275 29.1339
f 24/134/27 23/135/26 55/136/26 54/137/27 

vt 0.924989 0
vn -0.258819 0 0.965926
vt 1.95275 0
vt 1.95275 29.1339
vt 0.924989 29.1339
f 25/138/28 24/139/27 54/140/27 53/141/28 

vt 3.70467 0
vn -0.5 0 0.866025
vt 4.73244 0
vt 4.73244 29.1339
vt 3.70467 29.1339
f 26/142/29 25/143/28 53/144/28 52/145/29 

vt 6.19687 0
vn -0.707107 0 0.707107
vt 7.22464 0
vt 7.22464 29.1339
vt 6.19687 29.1339
f 27/146/30 26/147/29 52/148/29 51/149/30 

vt 8.23174 0
vn -0.866025 0 0.5
vt 9.25951 0
vt 9.25951 29.1339
vt 8.23174 29.1339
f 28/150/31 27/151/30 51/152/30 50/153/31 

vt 9.67062 0
vn -0.965926 0 0.258819
vt 10.6984 0
vt 10.6984 29.1339
vt 9.67062 29.1339
f 29/154/32 28/155/31 50/156/31 49/157/32 

vt 10.4154 0
vn -0.991445 0 0.130526
vt 11.4432 0
vt 11.4432 29.1339
vt 10.4154 29.1339
f 30/158/33 29/159/32 49/160/32 48/161/33 

vt -13.3858 -7.88861e-31
vn -1 0 -1.6374e-16
vt 11.0236 0
vt 11.0236 29.1339
f 1/162/34 30/163/34 48/164/34 32/60/34 

