# Alias OBJ Model File
# Exported from SketchUp, (c) 2000-2012 Trimble Navigation Limited
# File units = meters

mtllib boueCollider.mtl

g Mesh1 Component_1_1 Model

usemtl FrontColor
v 1.01 0 -0
vt -11.2037 -91.7249
vn -0.382683 -0.92388 -7.02553e-17
v 0.847365 0.0673654 -0
vt -13.654 -85.2421
vn -0.698872 -0.715247 -5.47151e-17
v 0.599178 0.0673654 -0.599178
vt -39.1872 -85.2421
vn -0.494177 -0.715247 0.494177
v 0.714178 0 -0.714178
vt -41.6375 -91.7249
vn -0.270598 -0.92388 0.270598
f 1/1/1 2/2/2 3/3/3 4/4/4 

v 0.714178 0 0.714178
vt -48.568 -57.6304
vn -0.270598 -0.92388 -0.270598
v 0.599178 0.0673654 0.599178
vt -51.0183 -51.1476
vn -0.494177 -0.715247 -0.494177
vt -76.5516 -51.1476
vt -79.0019 -57.6304
f 5/5/5 6/6/6 2/7/2 1/8/1 

v -2.22045e-16 0 1.01
vt -48.568 -9.41353
vn -1.40511e-17 -0.92388 -0.382683
v -2.22045e-16 0.0673654 0.847365
vt -51.0183 -2.93065
vn 8.59808e-17 -0.715247 -0.698872
vt -76.5516 -2.93065
vt -79.0019 -9.41353
f 7/9/7 8/10/8 6/11/6 5/12/5 

v -0.714178 0 0.714178
vt -11.2037 24.681
vn 0.270598 -0.92388 -0.270598
v -0.599178 0.0673654 0.599178
vt -13.654 31.1638
vn 0.494177 -0.715247 -0.494177
vt -39.1872 31.1638
vt -41.6375 24.681
f 9/13/9 10/14/10 8/15/8 7/16/7 

v -1.01 0 -2.22045e-16
vt 41.6375 24.681
vn 0.382683 -0.92388 5.62042e-17
v -0.847365 0.0673654 -2.22045e-16
vt 39.1872 31.1638
vn 0.698872 -0.715247 6.25315e-17
vt 13.654 31.1638
vt 11.2037 24.681
f 11/17/11 12/18/12 10/19/10 9/20/9 

v -0.714178 0 -0.714178
vt 79.0019 -9.41353
vn 0.270598 -0.92388 0.270598
v -0.599178 0.0673654 -0.599178
vt 76.5516 -2.93065
vn 0.494177 -0.715247 0.494177
vt 51.0183 -2.93065
vn 0.698872 -0.715247 7.03479e-17
vt 48.568 -9.41353
f 13/21/13 14/22/14 12/23/15 11/24/11 

v 0 0 -1.01
vt 79.0019 -57.6304
vn -8.43063e-17 -0.92388 0.382683
v 0 0.0673654 -0.847365
vt 76.5516 -51.1476
vn -1.56329e-17 -0.715247 0.698872
vt 51.0183 -51.1476
vt 48.568 -57.6304
f 15/25/16 16/26/17 14/27/14 13/28/13 

vt 41.6375 -91.7249
vt 39.1872 -85.2421
vt 13.654 -85.2421
vn -3.12657e-17 -0.715247 0.698872
vt 11.2037 -91.7249
f 4/29/4 3/30/3 16/31/18 15/32/16 

vt 39.1872 -31.3359
v 0.551543 0.23 -0.551543
vt 38.1723 -24.4802
vn -0.707107 1.60835e-17 0.707107
v 0 0.23 -0.78
vt 14.6689 -24.4802
vn 6.43342e-17 0 1
vt 13.654 -31.3359
f 3/33/3 17/34/19 18/35/20 16/36/18 

vt -13.654 -31.3359
vn -0.698872 -0.715247 -4.68986e-17
v 0.78 0.23 -0
vt -14.6689 -24.4802
vn -1 1.60835e-17 -1.60835e-17
vt -38.1723 -24.4802
vt -39.1872 -31.3359
f 2/37/21 19/38/22 17/39/19 3/40/3 

vt -51.0183 -17.9817
v 0.551543 0.23 0.551543
vt -52.0333 -11.1259
vn -0.707107 -3.21671e-17 -0.707107
vt -75.5367 -11.1259
vn -1 1.60835e-17 -0
vt -76.5516 -17.9817
vn -0.698872 -0.715247 -6.25315e-17
f 6/41/6 20/42/23 19/43/24 2/44/25 

vt -51.0183 0.904126
vn 6.25315e-17 -0.715247 -0.698872
v -2.22045e-16 0.23 0.78
vt -52.0333 7.75989
vn 2.09086e-16 -3.21671e-17 -1
vt -75.5367 7.75989
vn -0.707107 -1.60835e-17 -0.707107
vt -76.5516 0.904126
f 8/45/26 21/46/27 20/47/28 6/48/6 

vt -13.654 14.2584
v -0.551543 0.23 0.551543
vt -14.6689 21.1142
vn 0.707107 4.82506e-17 -0.707107
vt -38.1723 21.1142
vn 2.09086e-16 -1.60835e-17 -1
vt -39.1872 14.2584
vn 9.37972e-17 -0.715247 -0.698872
f 10/49/10 22/50/29 21/51/30 8/52/31 

vt 39.1872 14.2584
v -0.78 0.23 -2.22045e-16
vt 38.1723 21.1142
vn 1 4.82506e-17 6.43342e-17
vt 14.6689 21.1142
vt 13.654 14.2584
f 12/53/12 23/54/32 22/55/29 10/56/10 

vt 76.5516 0.904126
v -0.551543 0.23 -0.551543
vt 75.5367 7.75989
vn 0.707107 -1.60835e-17 0.707107
vt 52.0333 7.75989
vn 1 4.82506e-17 4.82506e-17
vt 51.0183 0.904126
f 14/57/14 24/58/33 23/59/34 12/60/12 

vt 76.5516 -17.9817
vt 75.5367 -11.1259
vt 52.0333 -11.1259
vn 0.707107 0 0.707107
vt 51.0183 -17.9817
f 16/61/17 18/62/20 24/63/35 14/64/14 

vt 75.5367 28.0399
v 0 0.392635 -0.847365
vt 76.5516 34.8957
vn 6.25315e-17 0.715247 0.698872
v -0.599178 0.392635 -0.599178
vt 51.0183 34.8957
vn 0.494177 0.715247 0.494177
vt 52.0333 28.0399
f 18/65/20 25/66/36 26/67/37 24/68/35 

vt 38.1723 41.3942
vn -0.707107 0 0.707107
v 0.599178 0.392635 -0.599178
vt 39.1872 48.25
vn -0.494177 0.715247 0.494177
vt 13.654 48.25
vn 3.12657e-17 0.715247 0.698872
vt 14.6689 41.3942
f 17/69/38 27/70/39 25/71/40 18/72/20 

vt -14.6689 41.3942
v 0.847365 0.392635 -0
vt -13.654 48.25
vn -0.698872 0.715247 1.56329e-17
vt -39.1872 48.25
vt -38.1723 41.3942
f 19/73/22 28/74/41 27/75/39 17/76/19 

vt -52.0333 28.0399
v 0.599178 0.392635 0.599178
vt -51.0183 34.8957
vn -0.494177 0.715247 -0.494177
vt -76.5516 34.8957
vt -75.5367 28.0399
f 20/77/28 29/78/42 28/79/41 19/80/22 

vt -52.0333 9.15414
v -2.22045e-16 0.392635 0.847365
vt -51.0183 16.0099
vn 1.71962e-16 0.715247 -0.698872
vt -76.5516 16.0099
vt -75.5367 9.15414
f 21/81/30 30/82/43 29/83/42 20/84/28 

vt -14.6689 -4.20014
v -0.599178 0.392635 0.599178
vt -13.654 2.65563
vn 0.494177 0.715247 -0.494177
vt -39.1872 2.65563
vn 1.56329e-16 0.715247 -0.698872
vt -38.1723 -4.20014
f 22/85/29 31/86/44 30/87/45 21/88/30 

vt 38.1723 -4.20014
v -0.847365 0.392635 -2.22045e-16
vt 39.1872 2.65563
vn 0.698872 0.715247 3.12657e-17
vt 13.654 2.65563
vt 14.6689 -4.20014
f 23/89/34 32/90/46 31/91/44 22/92/29 

vt 75.5367 9.15414
vn 0.707107 1.60835e-17 0.707107
vt 76.5516 16.0099
vt 51.0183 16.0099
vn 0.698872 0.715247 1.56329e-17
vt 52.0333 9.15414
f 24/93/47 26/94/37 32/95/48 23/96/34 

vt 76.5516 10.3397
v -0.714178 0.46 -0.714178
vt 79.0019 16.8225
vn 9.27734e-16 1 8.74503e-16
v -1.01 0.46 -2.22045e-16
vt 48.568 16.8225
vn 1.49046e-15 1 -8.36481e-17
vt 51.0183 10.3397
vn 0.698872 0.715247 2.34493e-17
f 26/97/37 33/98/49 34/99/50 32/100/51 

vt 76.5516 58.5566
vn 4.68986e-17 0.715247 0.698872
v 0 0.46 -1.01
vt 79.0019 65.0394
vn 7.60438e-17 1 1.00378e-15
vt 48.568 65.0394
vn 9.27734e-16 1 8.66899e-16
vt 51.0183 58.5566
f 25/101/52 35/102/53 33/103/54 26/104/37 

vt 39.1872 92.6511
v 0.714178 0.46 -0.714178
vt 41.6375 99.1339
vn -6.61581e-16 1 6.0835e-16
vt 11.2037 99.1339
vn 7.60438e-17 1 1.01899e-15
vt 13.654 92.6511
vn 3.90822e-17 0.715247 0.698872
f 27/105/39 36/106/55 35/107/56 25/108/57 

vt -13.654 92.6511
v 1.01 0.46 -0
vt -11.2037 99.1339
vn -8.5169e-16 1 7.60438e-17
vt -41.6375 99.1339
vn -6.69185e-16 1 6.15954e-16
vt -39.1872 92.6511
f 28/109/41 37/110/58 36/111/59 27/112/39 

vt -51.0183 58.5566
v 0.714178 0.46 0.714178
vt -48.568 65.0394
vn -5.17098e-16 1 -4.79076e-16
vt -79.0019 65.0394
vt -76.5516 58.5566
vn -0.698872 0.715247 -0
f 29/113/42 38/114/60 37/115/58 28/116/61 

vt -51.0183 10.3397
vn 1.64145e-16 0.715247 -0.698872
v -2.22045e-16 0.46 1.01
vt -48.568 16.8225
vn 1.2167e-16 1 -1.11024e-15
vt -79.0019 16.8225
vn -5.17098e-16 1 -4.8668e-16
vt -76.5516 10.3397
f 30/117/62 39/118/63 38/119/64 29/120/42 

vt -13.654 -23.7548
v -0.714178 0.46 0.714178
vt -11.2037 -17.272
vn 1.09503e-15 1 -1.09503e-15
vt -41.6375 -17.272
vn 1.2167e-16 1 -1.12545e-15
vt -39.1872 -23.7548
f 31/121/44 40/122/65 39/123/66 30/124/62 

vt 39.1872 -23.7548
vt 41.6375 -17.272
vt 11.2037 -17.272
vn 1.09503e-15 1 -1.10263e-15
vt 13.654 -23.7548
f 32/125/46 34/126/50 40/127/67 31/128/44 

vt -41.6375 32.09
v -1.17263 0.392635 -2.22045e-16
vt -44.0878 25.6071
vn -0.698872 0.715247 -1.56329e-16
v -0.829178 0.392635 0.829178
vt -8.75336 25.6071
vt -11.2037 32.09
vn 1.07982e-15 1 -1.10263e-15
f 34/129/50 41/130/68 42/131/39 40/132/69 

vt -79.0019 -2.00453
vn 9.42943e-16 1 8.74503e-16
v -0.829178 0.392635 -0.829178
vt -81.4522 -8.4874
vt -46.1177 -8.4874
vn -0.698872 0.715247 -1.64145e-16
vt -48.568 -2.00453
f 33/133/70 43/134/42 41/135/71 34/136/50 

vt -79.0019 -50.2214
v 0 0.392635 -1.17263
vt -81.4522 -56.7043
vn 8.59808e-17 0.715247 -0.698872
vt -46.1177 -56.7043
vt -48.568 -50.2214
f 35/137/56 44/138/72 43/139/42 33/140/54 

vt -41.6375 -84.3159
vn -6.76789e-16 1 6.0835e-16
v 0.829178 0.392635 -0.829178
vt -44.0878 -90.7988
vt -8.75336 -90.7988
vt -11.2037 -84.3159
f 36/141/73 45/142/44 44/143/72 35/144/56 

vt 11.2037 -84.3159
v 1.17263 0.392635 -0
vt 8.75336 -90.7988
vn 0.698872 0.715247 1.0943e-16
vt 44.0878 -90.7988
vt 41.6375 -84.3159
f 37/145/58 46/146/74 45/147/44 36/148/59 

vt 48.568 -50.2214
vn -5.32306e-16 1 -4.79076e-16
v 0.829178 0.392635 0.829178
vt 46.1177 -56.7043
vt 81.4522 -56.7043
vn 0.698872 0.715247 1.17247e-16
vt 79.0019 -50.2214
f 38/149/75 47/150/37 46/151/76 37/152/58 

vt 48.568 -2.00453
v -4.44089e-16 0.392635 1.17263
vt 46.1177 -8.4874
vn -7.81644e-18 0.715247 0.698872
vt 81.4522 -8.4874
vt 79.0019 -2.00453
vn -5.24702e-16 1 -4.71471e-16
f 39/153/63 48/154/77 47/155/37 38/156/78 

vt 11.2037 32.09
vn 1.07982e-15 1 -1.09503e-15
vt 8.75336 25.6071
vt 44.0878 25.6071
vt 41.6375 32.09
f 40/157/79 42/158/39 48/159/77 39/160/63 

vt 8.75336 21.9899
v -0.876812 0.23 0.876812
vt 7.73841 15.1342
v -2.22045e-16 0.23 1.24
vt 45.1028 15.1342
vn -1.44752e-16 1.60835e-17 1
vt 44.0878 21.9899
vn -1.56329e-17 0.715247 0.698872
f 42/161/39 49/162/19 50/163/80 48/164/81 

vt -44.0878 21.9899
v -1.24 0.23 -2.22045e-16
vt -45.1028 15.1342
vn -1 -1.60835e-17 -1.28668e-16
vt -7.73841 15.1342
vt -8.75336 21.9899
f 41/165/68 51/166/82 49/167/19 42/168/39 

vt -81.4522 8.63565
v -0.876812 0.23 -0.876812
vt -82.4671 1.77988
vn -0.707107 0 -0.707107
vt -45.1028 1.77988
vt -46.1177 8.63565
vn -0.698872 0.715247 -1.71962e-16
f 43/169/42 52/170/83 51/171/82 41/172/84 

vt -81.4522 -10.2502
vn 7.81644e-17 0.715247 -0.698872
v 0 0.23 -1.24
vt -82.4671 -17.1059
vn 8.04177e-17 3.21671e-17 -1
vt -45.1028 -17.1059
vt -46.1177 -10.2502
f 44/173/85 53/174/86 52/175/83 43/176/42 

vt -44.0878 -23.6044
v 0.876812 0.23 -0.876812
vt -45.1028 -30.4602
vn 0.707107 1.60835e-17 -0.707107
vt -7.73841 -30.4602
vt -8.75336 -23.6044
f 45/177/44 54/178/87 53/179/86 44/180/85 

vt 8.75336 -23.6044
v 1.24 0.23 -0
vt 7.73841 -30.4602
vn 1 1.60835e-17 1.12585e-16
vt 45.1028 -30.4602
vt 44.0878 -23.6044
f 46/181/74 55/182/88 54/183/87 45/184/44 

vt 46.1177 -10.2502
v 0.876812 0.23 0.876812
vt 45.1028 -17.1059
vt 82.4671 -17.1059
vn 1 1.60835e-17 1.28668e-16
vt 81.4522 -10.2502
f 47/185/37 56/186/33 55/187/89 46/188/74 

vt 46.1177 8.63565
vn -3.12657e-17 0.715247 0.698872
vt 45.1028 1.77988
vt 82.4671 1.77988
vt 81.4522 8.63565
f 48/189/90 50/190/80 56/191/33 47/192/37 

vn -1.44752e-16 3.21671e-17 1
v -4.44089e-16 0.0673654 1.17263
vt 46.1177 8.27839
vn -6.25315e-17 -0.715247 0.698872
v 0.829178 0.0673654 0.829178
vt 81.4522 8.27839
vt 82.4671 15.1342
f 50/163/91 57/193/92 58/194/14 56/195/47 

vt 7.73841 1.77988
v -0.829178 0.0673654 0.829178
vt 8.75336 -5.07589
vt 44.0878 -5.07589
f 49/196/19 59/197/3 57/198/92 50/190/91 

v -1.17263 0.0673654 -2.22045e-16
vt -44.0878 -5.07589
vn -0.698872 -0.715247 -1.40696e-16
vt -8.75336 -5.07589
vt -7.73841 1.77988
f 51/171/82 60/199/93 59/200/3 49/201/19 

vt -82.4671 15.1342
v -0.829178 0.0673654 -0.829178
vt -81.4522 8.27839
vt -46.1177 8.27839
vn -0.698872 -0.715247 -1.56329e-16
vn -1 -3.21671e-17 -1.28668e-16
f 52/202/83 61/203/6 60/204/94 51/166/95 

vt -82.4671 34.02
vn 9.65013e-17 1.60835e-17 -1
v 0 0.0673654 -1.17263
vt -81.4522 27.1642
vn 1.0943e-16 -0.715247 -0.698872
vt -46.1177 27.1642
vt -45.1028 34.02
f 53/205/96 62/206/97 61/207/6 52/208/83 

vt -45.1028 47.3742
v 0.829178 0.0673654 -0.829178
vt -44.0878 40.5185
vt -8.75336 40.5185
vt -7.73841 47.3742
vn 8.04177e-17 1.60835e-17 -1
f 54/209/87 63/210/10 62/211/97 53/212/98 

vt 7.73841 47.3742
vn 1 3.21671e-17 1.12585e-16
v 1.17263 0.0673654 -0
vt 8.75336 40.5185
vn 0.698872 -0.715247 4.68986e-17
vt 44.0878 40.5185
vt 45.1028 47.3742
vn 0.707107 0 -0.707107
f 55/213/99 64/214/100 63/215/10 54/216/101 

vt 45.1028 34.02
vt 46.1177 27.1642
vt 81.4522 27.1642
vn 0.698872 -0.715247 3.12657e-17
vt 82.4671 34.02
f 56/217/35 58/218/14 64/219/102 55/220/89 

vt 46.1177 64.1133
vt 48.568 57.6304
vt 79.0019 57.6304
vn 0.382683 -0.92388 -2.81021e-17
vt 81.4522 64.1133
f 58/221/14 5/222/13 1/223/103 64/224/102 

vt 46.1177 15.8964
vn -7.03479e-17 -0.715247 0.698872
vt 48.568 9.41353
vn 0 -0.92388 0.382683
vt 79.0019 9.41353
vt 81.4522 15.8964
f 57/225/104 7/226/105 5/227/13 58/228/14 

vt 8.75336 -18.1981
vt 11.2037 -24.681
vt 41.6375 -24.681
vt 44.0878 -18.1981
f 59/229/3 9/230/4 7/231/105 57/232/92 

vt -44.0878 -18.1981
vn -0.698872 -0.715247 -1.48512e-16
vt -41.6375 -24.681
vn -0.382683 -0.92388 -1.54562e-16
vt -11.2037 -24.681
vt -8.75336 -18.1981
f 60/233/106 11/234/107 9/235/4 59/236/3 

vt -81.4522 15.8964
vt -79.0019 9.41353
vt -48.568 9.41353
vt -46.1177 15.8964
f 61/237/6 13/238/5 11/239/107 60/240/94 

vt -81.4522 64.1133
vn 1.01614e-16 -0.715247 -0.698872
vt -79.0019 57.6304
vn 9.83574e-17 -0.92388 -0.382683
vt -48.568 57.6304
vt -46.1177 64.1133
f 62/241/108 15/242/109 13/243/5 61/244/6 

vt -44.0878 98.2078
vt -41.6375 91.7249
vt -11.2037 91.7249
vt -8.75336 98.2078
f 63/245/10 4/246/9 15/247/109 62/248/97 

vt 8.75336 98.2078
vt 11.2037 91.7249
vt 41.6375 91.7249
vt 44.0878 98.2078
f 64/249/100 1/250/103 4/251/9 63/252/10 

