# Alias OBJ Model File
# Exported from SketchUp, (c) 2000-2012 Trimble Navigation Limited
# File units = meters

mtllib tabouret.mtl

g Mesh1 Model

usemtl FrontColor
v 0.321091 0 -0.230142
vt 15.5449 -1.60966e-17
vn 0.707107 1.08108e-17 0.707107
v 0.321091 0.707416 -0.230142
vt 15.5449 27.851
v 0.307772 0.707416 -0.219922
vt 14.8839 27.851
vn 0.5 5.72204e-17 0.866025
v 0.307772 0 -0.219922
vt 14.8839 -1.60966e-17
f 1/1/1 2/2/1 3/3/2 4/4/2 

v 0.331311 0 -0.243461
vt 15.5449 4.64743e-17
vn 0.866025 -3.35822e-17 0.5
v 0.331311 0.707416 -0.243461
vt 14.8839 4.64743e-17
f 5/5/3 6/2/3 2/3/1 1/6/1 

v 0.337736 0 -0.258972
vt 14.508 4.71888e-16
vn 0.965926 -8.03921e-17 0.258819
v 0.337736 0.707416 -0.258972
vt 14.508 27.851
vt 13.8471 27.851
vt 13.8471 4.71888e-16
f 7/7/4 8/8/4 6/9/3 5/10/3 

v 0.339927 0 -0.275616
vt 12.505 1.22214e-15
vn 1 -1.13186e-16 -2.51956e-16
v 0.339927 0.707416 -0.275616
vt 12.505 27.851
vt 11.8441 27.851
vt 11.8441 1.22214e-15
f 9/11/5 10/12/5 8/13/4 7/14/4 

v 0.337736 0 -0.292261
vt 9.67234 1.78155e-15
vn 0.965926 -1.14089e-16 -0.258819
v 0.337736 0.707416 -0.292261
vt 9.67234 27.851
vt 9.01138 27.851
vt 9.01138 1.78155e-15
f 11/15/6 12/16/6 10/17/5 9/18/5 

v 0.331311 0 -0.307772
vt 6.20302 1.75066e-15
vn 0.866025 -1.23832e-16 -0.5
v 0.331311 0.707416 -0.307772
vt 6.20302 27.851
vt 5.54206 27.851
vt 5.54206 1.75066e-15
f 13/19/7 14/20/7 12/21/6 11/22/6 

v 0.321091 0 -0.321091
vt 2.33349 2.49278e-15
vn 0.707107 -1.71787e-16 -0.707107
v 0.321091 0.707416 -0.321091
vt 2.33349 27.851
vt 1.67253 27.851
vt 1.67253 2.49278e-15
f 15/23/8 16/24/8 14/25/7 13/26/7 

v 0.307772 0 -0.331311
vt -1.67253 3.54486e-15
vn 0.5 -1.61211e-16 -0.866025
v 0.307772 0.707416 -0.331311
vt -1.67253 27.851
vt -2.33349 27.851
vt -2.33349 3.54486e-15
f 17/27/9 18/28/9 16/29/8 15/30/8 

v 0.292261 0 -0.337736
vt -5.54206 1.997e-15
vn 0.258819 -1.05806e-16 -0.965926
v 0.292261 0.707416 -0.337736
vt -5.54206 27.851
vt -6.20302 27.851
vt -6.20302 1.997e-15
f 19/31/10 20/32/10 18/33/9 17/34/9 

v 0.275616 0 -0.339927
vt -9.01138 1.32359e-15
vn 3.63936e-16 -9.74585e-17 -1
v 0.275616 0.707416 -0.339927
vt -9.01138 27.851
vt -9.67234 27.851
vt -9.67234 1.32359e-15
f 21/35/11 22/36/11 20/37/10 19/38/10 

v 0.258972 0 -0.337736
vt -11.8441 1.22214e-15
vn -0.258819 -6.72283e-17 -0.965926
v 0.258972 0.707416 -0.337736
vt -11.8441 27.851
vt -12.505 27.851
vt -12.505 1.22214e-15
f 23/39/12 24/40/12 22/41/11 21/42/11 

v 0.243461 0 -0.331311
vt -13.8471 2.53077e-16
vn -0.5 -2.28405e-17 -0.866025
v 0.243461 0.707416 -0.331311
vt -13.8471 27.851
vt -14.508 27.851
vt -14.508 2.53077e-16
f 25/43/13 26/44/13 24/45/12 23/46/12 

v 0.230142 0 -0.321091
vt -14.8839 6.8151e-17
vn -0.707107 -6.14088e-18 -0.707107
v 0.230142 0.707416 -0.321091
vt -14.8839 27.851
vt -15.5449 27.851
vt -15.5449 6.8151e-17
f 27/47/14 28/48/14 26/49/13 25/50/13 

v 0.219922 0 -0.307772
vt -14.8839 -1.48288e-18
vn -0.866025 2.43123e-17 -0.5
v 0.219922 0.707416 -0.307772
vt -15.5449 -1.48288e-18
f 29/51/15 30/48/15 28/49/14 27/52/14 

v 0.213497 0 -0.292261
vt -13.8471 1.52262e-16
vn -0.965926 4.70034e-17 -0.258819
v 0.213497 0.707416 -0.292261
vt -14.508 1.52262e-16
f 31/53/16 32/44/16 30/45/15 29/54/15 

v 0.211306 0 -0.275616
vt -11.8441 3.27354e-16
vn -1 5.7511e-17 6.99877e-17
v 0.211306 0.707416 -0.275616
vt -12.505 3.27354e-16
f 33/55/17 34/40/17 32/41/16 31/56/16 

v 0.213497 0 -0.258972
vt -9.01138 6.3901e-16
vn -0.965926 9.3696e-17 0.258819
v 0.213497 0.707416 -0.258972
vt -9.67234 6.3901e-16
f 35/57/18 36/36/18 34/37/17 33/58/17 

v 0.219922 0 -0.243461
vt -5.54206 1.39621e-15
vn -0.866025 1.27907e-16 0.5
v 0.219922 0.707416 -0.243461
vt -6.20302 1.39621e-15
f 37/59/19 38/32/19 36/33/18 35/60/18 

v 0.230142 0 -0.230142
vt -1.67253 1.70181e-15
vn -0.707107 1.37535e-16 0.707107
v 0.230142 0.707416 -0.230142
vt -2.33349 1.70181e-15
f 39/61/20 40/28/20 38/29/19 37/62/19 

v 0.243461 0 -0.219922
vt 2.33349 1.76283e-15
vn -0.5 1.48708e-16 0.866025
v 0.243461 0.707416 -0.219922
vt 1.67253 1.76283e-15
f 41/63/21 42/24/21 40/25/20 39/64/20 

v 0.258972 0 -0.213497
vt 6.20302 1.82139e-15
vn -0.258819 1.43584e-16 0.965926
v 0.258972 0.707416 -0.213497
vt 5.54206 1.82139e-15
f 43/65/22 44/20/22 42/21/21 41/66/21 

v 0.275616 0 -0.211306
vt 9.67234 1.24284e-15
vn 2.65953e-16 1.15022e-16 1
v 0.275616 0.707416 -0.211306
vt 9.01138 1.24284e-15
f 45/67/23 46/16/23 44/17/22 43/68/22 

v 0.292261 0 -0.213497
vt 12.505 6.79578e-16
vn 0.258819 9.13834e-17 0.965926
v 0.292261 0.707416 -0.213497
vt 11.8441 6.79578e-16
f 47/69/24 48/12/24 46/13/23 45/70/23 

vt 14.508 2.74793e-16
vt 13.8471 2.74793e-16
f 4/71/2 3/8/2 48/9/24 47/72/24 

v 0.292261 0.707416 0.213497
vt -11.5063 -8.4054
vn 0 -1 -0
vt -11.5063 8.4054
vt -12.117 8.65834
f 49/73/25 48/74/25 3/75/25

vt -10.851 8.31913
f 49/73/25 46/76/25 48/74/25

v 0.275616 0.707416 0.211306
vt -10.851 -8.31913
f 50/77/25 46/76/25 49/73/25

vt -10.1957 8.4054
f 50/77/25 44/78/25 46/76/25

v 0.258972 0.707416 0.213497
vt -10.1957 -8.4054
f 51/79/25 44/78/25 50/77/25

v 0.243461 0.707416 0.219922
vt -9.58509 -8.65834
f 52/80/25 44/78/25 51/79/25

vt -9.58509 8.65834
f 52/80/25 42/81/25 44/78/25

v 0.230142 0.707416 0.230142
vt -9.06071 -9.06071
f 53/82/25 42/81/25 52/80/25

vt -9.06071 9.06071
f 53/82/25 40/83/25 42/81/25

vt -8.65834 9.58509
f 53/82/25 38/84/25 40/83/25

v 0.219922 0.707416 0.243461
vt -8.65834 -9.58509
f 54/85/25 38/84/25 53/82/25

v 0.213497 0.707416 0.258972
vt -8.4054 -10.1957
f 55/86/25 38/84/25 54/85/25

vt -8.4054 10.1957
f 55/86/25 36/87/25 38/84/25

v 0.211306 0.707416 0.275616
vt -8.31913 -10.851
f 56/88/25 36/87/25 55/86/25

vt -8.31913 10.851
f 36/87/25 56/88/25 34/89/25

v -0.211306 0.707416 0.275616
vt 8.31913 -10.851
f 56/88/25 57/90/25 34/89/25

v 0.213497 0.707416 0.292261
vt -8.4054 -11.5063
f 58/91/25 57/90/25 56/88/25

v 0.219922 0.707416 0.307772
vt -8.65834 -12.117
f 59/92/25 57/90/25 58/91/25

v 0.230142 0.707416 0.321091
vt -9.06071 -12.6414
f 60/93/25 57/90/25 59/92/25

v 0.243461 0.707416 0.331311
vt -9.58509 -13.0437
f 61/94/25 57/90/25 60/93/25

v 0.258972 0.707416 0.337736
vt -10.1957 -13.2967
f 62/95/25 57/90/25 61/94/25

v -0.213497 0.707416 0.292261
vt 8.4054 -11.5063
f 62/95/25 63/96/25 57/90/25

v 0.275616 0.707416 0.339927
vt -10.851 -13.383
f 64/97/25 63/96/25 62/95/25

v 0.349114 0.707416 0.349114
vt -13.7447 -13.7447
f 65/98/25 63/96/25 64/97/25

v -0.219922 0.707416 0.307772
vt 8.65834 -12.117
f 65/98/25 66/99/25 63/96/25

v -0.230142 0.707416 0.321091
vt 9.06071 -12.6414
f 65/98/25 67/100/25 66/99/25

v -0.243461 0.707416 0.331311
vt 9.58509 -13.0437
f 65/98/25 68/101/25 67/100/25

v -0.258972 0.707416 0.337736
vt 10.1957 -13.2967
f 65/98/25 69/102/25 68/101/25

v -0.275616 0.707416 0.339927
vt 10.851 -13.383
f 65/98/25 70/103/25 69/102/25

v -0.349114 0.707416 0.349114
vt 13.7447 -13.7447
f 71/104/25 70/103/25 65/98/25

v -0.292261 0.707416 0.337736
vt 11.5063 -13.2967
f 70/103/25 71/104/25 72/105/25

v -0.307772 0.707416 0.331311
vt 12.117 -13.0437
f 72/105/25 71/104/25 73/106/25

v -0.321091 0.707416 0.321091
vt 12.6414 -12.6414
f 73/106/25 71/104/25 74/107/25

v -0.331311 0.707416 0.307772
vt 13.0437 -12.117
f 74/107/25 71/104/25 75/108/25

v -0.337736 0.707416 0.292261
vt 13.2967 -11.5063
f 75/108/25 71/104/25 76/109/25

v -0.339927 0.707416 0.275616
vt 13.383 -10.851
f 76/109/25 71/104/25 77/110/25

v -0.339927 0.707416 -0.275616
vt 13.383 10.851
f 77/110/25 71/104/25 78/111/25

v -0.349114 0.707416 -0.349114
vt 13.7447 13.7447
f 79/112/25 78/111/25 71/104/25

v -0.337736 0.707416 -0.292261
vt 13.2967 11.5063
f 78/111/25 79/112/25 80/113/25

v -0.331311 0.707416 -0.307772
vt 13.0437 12.117
f 80/113/25 79/112/25 81/114/25

v -0.321091 0.707416 -0.321091
vt 12.6414 12.6414
f 81/114/25 79/112/25 82/115/25

v -0.307772 0.707416 -0.331311
vt 12.117 13.0437
f 82/115/25 79/112/25 83/116/25

v -0.292261 0.707416 -0.337736
vt 11.5063 13.2967
f 83/116/25 79/112/25 84/117/25

v -0.275616 0.707416 -0.339927
vt 10.851 13.383
f 84/117/25 79/112/25 85/118/25

v 0.349114 0.707416 -0.349114
vt -13.7447 13.7447
f 85/118/25 79/112/25 86/119/25

vt -13.7447 27.851
vn 0 0 -1
vt 13.7447 27.851
v -0.349114 0.836037 -0.349114
vt 13.7447 32.9148
v 0.349114 0.836037 -0.349114
vt -13.7447 32.9148
f 86/120/26 79/121/26 87/122/26 88/123/26 

vn -1 0 -0
v -0.349114 0.836037 0.349114
f 79/120/27 71/121/27 89/122/27 87/123/27 

vn 0 0 1
v 0.349114 0.836037 0.349114
f 71/120/28 65/121/28 90/122/28 89/123/28 

vn 1 0 -0
f 65/120/29 86/121/29 88/122/29 90/123/29 

v 0.339927 0.707416 0.275616
vt -13.383 -10.851
f 65/98/25 91/124/25 86/119/25

v 0.337736 0.707416 0.292261
vt -13.2967 -11.5063
f 65/98/25 92/125/25 91/124/25

v 0.331311 0.707416 0.307772
vt -13.0437 -12.117
f 65/98/25 93/126/25 92/125/25

v 0.321091 0.707416 0.321091
vt -12.6414 -12.6414
f 65/98/25 94/127/25 93/126/25

v 0.307772 0.707416 0.331311
vt -12.117 -13.0437
f 65/98/25 95/128/25 94/127/25

v 0.292261 0.707416 0.337736
vt -11.5063 -13.2967
f 65/98/25 96/129/25 95/128/25

f 65/98/25 64/97/25 96/129/25

v 0.292261 0 0.337736
vt 9.67234 2.13848e-16
vn 0.258819 -1.79418e-17 0.965926
vn 2.09963e-16 1.83602e-18 1
v 0.275616 0 0.339927
vt 9.01138 2.13848e-16
f 97/130/30 96/16/30 64/17/31 98/131/31 

v 0.307772 0 0.331311
vt 6.20302 3.50679e-16
vn 0.5 -2.15829e-17 0.866025
vt 5.54206 3.50679e-16
f 99/132/32 95/20/32 96/21/30 97/133/30 

v 0.321091 0 0.321091
vt 2.33349 3.86086e-16
vn 0.707107 -2.56891e-17 0.707107
vt 1.67253 3.86086e-16
f 100/134/33 94/24/33 95/25/32 99/135/32 

v 0.331311 0 0.307772
vt -1.67253 5.16784e-16
vn 0.866025 -2.53016e-17 0.5
vt -2.33349 5.16784e-16
f 101/136/34 93/28/34 94/29/33 100/137/33 

v 0.337736 0 0.292261
vt -5.54206 3.50679e-16
vn 0.965926 -3.84897e-17 0.258819
vt -6.20302 3.50679e-16
f 102/138/35 92/32/35 93/33/34 101/139/34 

v 0.339927 0 0.275616
vt -9.01138 8.12168e-16
vn 1 -2.41655e-17 -1.62371e-15
vt -9.67234 8.12168e-16
f 103/140/36 91/36/36 92/37/35 102/141/35 

v 0.337736 0 0.258972
vt -11.8441 -8.75787e-17
vn 0.965926 5.6296e-17 -0.258819
v 0.337736 0.707416 0.258972
vt -12.505 -8.75787e-17
f 104/142/37 105/40/37 91/41/36 103/143/36 

v 0.331311 0 0.243461
vt -13.8471 -8.73818e-16
vn 0.866025 8.89763e-17 -0.5
v 0.331311 0.707416 0.243461
vt -14.508 -8.73818e-16
f 106/144/38 107/44/38 105/45/37 104/145/37 

v 0.321091 0 0.230142
vt -14.8839 -3.25815e-16
vn 0.707107 1.92806e-17 -0.707107
v 0.321091 0.707416 0.230142
vt -15.5449 -3.25815e-16
f 108/146/39 109/48/39 107/49/38 106/147/38 

v 0.307772 0 0.219922
vt -14.8839 1.72252e-17
vn 0.5 -5.3715e-17 -0.866025
v 0.307772 0.707416 0.219922
vt -15.5449 1.72252e-17
f 110/148/40 111/48/40 109/49/39 108/149/39 

v 0.292261 0 0.213497
vt -13.8471 -2.4394e-16
vn 0.258819 -7.83724e-17 -0.965926
vt -14.508 -2.4394e-16
f 112/150/41 49/44/41 111/45/40 110/151/40 

v 0.275616 0 0.211306
vt -11.8441 -5.66013e-16
vn -6.99877e-16 -7.15115e-17 -1
vt -12.505 -5.66013e-16
f 113/152/42 50/40/42 49/41/41 112/153/41 

v 0.258972 0 0.213497
vt -9.01138 -5.69685e-16
vn -0.258819 -3.19577e-17 -0.965926
vt -9.67234 -5.69685e-16
f 114/154/43 51/36/43 50/37/42 113/155/42 

v 0.243461 0 0.219922
vt -5.54206 -5.15839e-17
vn -0.5 4.8881e-17 -0.866025
vt -6.20302 -5.15839e-17
f 115/156/44 52/32/44 51/33/43 114/157/43 

v 0.230142 0 0.230142
vt -1.67253 1.28753e-15
vn -0.707107 7.93963e-17 -0.707107
vt -2.33349 1.28753e-15
f 116/158/45 53/28/45 52/29/44 115/159/44 

v 0.219922 0 0.243461
vt 2.33349 7.12542e-16
vn -0.866025 3.88833e-17 -0.5
vt 1.67253 7.12542e-16
f 117/160/46 54/24/46 53/25/45 116/161/45 

v 0.213497 0 0.258972
vt 6.20302 2.45178e-16
vn -0.965926 6.62727e-17 -0.258819
vt 5.54206 2.45178e-16
f 118/162/47 55/20/47 54/21/46 117/163/46 

v 0.211306 0 0.275616
vt 9.67234 1.06691e-15
vn -1 9.3732e-17 -5.45904e-16
vt 9.01138 1.06691e-15
f 119/164/48 56/16/48 55/17/47 118/165/47 

v 0.213497 0 0.292261
vt 12.505 5.15533e-16
vn -0.965926 4.26846e-17 0.258819
vt 11.8441 5.15533e-16
f 120/166/49 58/12/49 56/13/48 119/167/48 

v 0.219922 0 0.307772
vt 14.508 3.08525e-17
vn -0.866025 -1.33891e-18 0.5
vt 13.8471 3.08525e-17
f 121/168/50 59/8/50 58/9/49 120/169/49 

v 0.230142 0 0.321091
vt 15.5449 6.00105e-18
vn -0.707107 1.97226e-17 0.707107
vt 14.8839 6.00105e-18
f 122/170/51 60/2/51 59/3/50 121/171/50 

v 0.243461 0 0.331311
vt 15.5449 -2.299e-16
vn -0.5 5.76504e-17 0.866025
vt 14.8839 -2.299e-16
f 123/172/52 61/2/52 60/3/51 122/173/51 

v 0.258972 0 0.337736
vt 14.508 -5.31265e-16
vn -0.258819 4.11414e-17 0.965926
vt 13.8471 -5.31265e-16
f 124/174/53 62/8/53 61/9/52 123/175/52 

vt 12.505 -2.15746e-16
vt 11.8441 -2.15746e-16
f 98/176/31 64/12/31 62/13/53 124/177/53 

vt -12.6414 -9.06071
vt -13.0437 -9.58509
vt -13.2967 -10.1957
vt -12.117 -8.65834
f 108/178/25 106/179/25 104/180/25 103/124/25 102/125/25 101/126/25 100/127/25 99/128/25 97/129/25 98/97/25 124/95/25 123/94/25 122/93/25 121/92/25 120/91/25 119/88/25 118/86/25 117/85/25 116/82/25 115/80/25 114/79/25 113/77/25 112/73/25 110/181/25 

f 49/73/25 3/75/25 111/181/25

vt -12.6414 9.06071
f 111/181/25 3/75/25 2/182/25

f 111/181/25 2/182/25 109/178/25

vt -13.0437 9.58509
f 109/178/25 2/182/25 6/183/25

f 109/178/25 6/183/25 107/179/25

vt -13.2967 10.1957
f 107/179/25 6/183/25 8/184/25

f 107/179/25 8/184/25 105/180/25

f 105/180/25 8/184/25 91/124/25

vt -13.383 10.851
f 91/124/25 8/184/25 10/185/25

f 10/185/25 86/119/25 91/124/25

vt -13.2967 11.5063
f 12/186/25 86/119/25 10/185/25

vt -13.0437 12.117
f 14/187/25 86/119/25 12/186/25

vt -12.6414 12.6414
f 16/188/25 86/119/25 14/187/25

vt -12.117 13.0437
f 18/189/25 86/119/25 16/188/25

vt -11.5063 13.2967
f 20/190/25 86/119/25 18/189/25

vt -10.851 13.383
f 22/191/25 86/119/25 20/190/25

v -0.213497 0.707416 -0.292261
vt 8.4054 11.5063
f 125/192/25 86/119/25 22/191/25

v -0.219922 0.707416 -0.307772
vt 8.65834 12.117
f 126/193/25 86/119/25 125/192/25

v -0.230142 0.707416 -0.321091
vt 9.06071 12.6414
f 127/194/25 86/119/25 126/193/25

v -0.243461 0.707416 -0.331311
vt 9.58509 13.0437
f 128/195/25 86/119/25 127/194/25

v -0.258972 0.707416 -0.337736
vt 10.1957 13.2967
f 129/196/25 86/119/25 128/195/25

f 85/118/25 86/119/25 129/196/25

v -0.275616 0 -0.339927
vt 12.505 6.52941e-16
vn 1.1198e-15 -8.52941e-17 -1
vn 0.258819 -2.25683e-17 -0.965926
v -0.258972 0 -0.337736
vt 11.8441 6.52941e-16
f 130/197/54 85/12/54 129/13/55 131/198/55 

v -0.292261 0 -0.337736
vt 9.67234 1.67463e-15
vn -0.258819 -2.41103e-17 -0.965926
vt 9.01138 1.67463e-15
f 132/199/56 84/16/56 85/17/54 130/200/54 

v -0.307772 0 -0.331311
vt 6.20302 -1.10524e-15
vn -0.5 1.11169e-16 -0.866025
vt 5.54206 -1.10524e-15
f 133/201/57 83/20/57 84/21/56 132/202/56 

v -0.321091 0 -0.321091
vt 2.33349 -2.73325e-15
vn -0.707107 1.1981e-16 -0.707107
vt 1.67253 -2.73325e-15
f 134/203/58 82/24/58 83/25/57 133/204/57 

v -0.331311 0 -0.307772
vt -1.67253 -1.4776e-15
vn -0.866025 5.7064e-17 -0.5
vt -2.33349 -1.4776e-15
f 135/205/59 81/28/59 82/29/58 134/206/58 

v -0.337736 0 -0.292261
vt -5.54206 -4.97087e-16
vn -0.965926 -1.28153e-17 -0.258819
vt -6.20302 -4.97087e-16
f 136/207/60 80/32/60 81/33/59 135/208/59 

v -0.339927 0 -0.275616
vt -9.01138 8.10582e-16
vn -1 -3.81115e-17 7.27872e-16
vt -9.67234 8.10582e-16
f 137/209/61 78/36/61 80/37/60 136/210/60 

v -0.337736 0 -0.258972
vt -11.8441 2.41452e-16
vn -0.965926 1.88705e-17 0.258819
v -0.337736 0.707416 -0.258972
vt -12.505 2.41452e-16
f 138/211/62 139/40/62 78/41/61 137/212/61 

v -0.331311 0 -0.243461
vt -13.8471 -4.84443e-16
vn -0.866025 6.82409e-17 0.5
v -0.331311 0.707416 -0.243461
vt -14.508 -4.84443e-16
f 140/213/63 141/44/63 139/45/62 138/214/62 

v -0.321091 0 -0.230142
vt -14.8839 -3.49886e-16
vn -0.707107 7.57708e-17 0.707107
v -0.321091 0.707416 -0.230142
vt -15.5449 -3.49886e-16
f 142/215/64 143/48/64 141/49/63 140/216/63 

v -0.307772 0 -0.219922
vt -14.8839 -3.68867e-17
vn -0.5 4.96699e-17 0.866025
v -0.307772 0.707416 -0.219922
vt -15.5449 -3.68867e-17
f 144/217/65 145/48/65 143/49/64 142/218/64 

v -0.292261 0 -0.213497
vt -13.8471 8.66424e-17
vn -0.258819 1.95975e-17 0.965926
v -0.292261 0.707416 -0.213497
vt -14.508 8.66424e-17
f 146/219/66 147/44/66 145/45/65 144/220/65 

v -0.275616 0 -0.211306
vt -11.8441 8.94315e-17
vn -2.37958e-16 1.3946e-17 1
v -0.275616 0.707416 -0.211306
vt -12.505 8.94315e-17
f 148/221/67 149/40/67 147/41/66 146/222/66 

v -0.258972 0 -0.213497
vt -9.01138 1.40737e-16
vn 0.258819 5.11441e-18 0.965926
v -0.258972 0.707416 -0.213497
vt -9.67234 1.40737e-16
f 150/223/68 151/36/68 149/37/67 148/224/67 

v -0.243461 0 -0.219922
vn 0.5 -4.65185e-18 0.866025
v -0.243461 0.707416 -0.219922
f 152/156/69 153/32/69 151/33/68 150/157/68 

v -0.230142 0 -0.230142
vt -1.67253 -6.10166e-17
vn 0.707107 -2.59653e-18 0.707107
v -0.230142 0.707416 -0.230142
vt -2.33349 -6.10166e-17
f 154/225/70 155/28/70 153/29/69 152/226/69 

v -0.219922 0 -0.243461
vt 2.33349 -4.3925e-18
vn 0.866025 -1.53997e-17 0.5
v -0.219922 0.707416 -0.243461
vt 1.67253 -4.3925e-18
f 156/227/71 157/24/71 155/25/70 154/228/70 

v -0.213497 0 -0.258972
vt 6.20302 -3.52237e-16
vn 0.965926 -2.54992e-17 0.258819
v -0.213497 0.707416 -0.258972
vt 5.54206 -3.52237e-16
f 158/229/72 159/20/72 157/21/71 156/230/71 

v -0.211306 0 -0.275616
vt 9.67234 -1.96882e-16
vn 1 -2.41655e-17 -2.09963e-16
v -0.211306 0.707416 -0.275616
vt 9.01138 -1.96882e-16
f 160/231/73 161/16/73 159/17/72 158/232/72 

v -0.213497 0 -0.292261
vt 12.505 -1.88179e-16
vn 0.965926 -1.70448e-17 -0.258819
vt 11.8441 -1.88179e-16
f 162/233/74 125/12/74 161/13/73 160/234/73 

v -0.219922 0 -0.307772
vt 14.508 -2.1023e-17
vn 0.866025 -1.0242e-17 -0.5
vt 13.8471 -2.1023e-17
f 163/235/75 126/8/75 125/9/74 162/236/74 

v -0.230142 0 -0.321091
vt 15.5449 7.12973e-18
vn 0.707107 -2.56891e-17 -0.707107
vt 14.8839 7.12973e-18
f 164/237/76 127/2/76 126/3/75 163/238/75 

v -0.243461 0 -0.331311
vt 15.5449 1.66461e-16
vn 0.5 -1.33857e-17 -0.866025
vt 14.8839 1.66461e-16
f 165/239/77 128/2/77 127/3/76 164/240/76 

vt 14.508 -8.66801e-17
vt 13.8471 -8.66801e-17
f 131/241/55 129/8/55 128/9/77 165/242/77 

vt 8.31913 10.851
vt 8.4054 10.1957
vt 8.65834 9.58509
vt 9.06071 9.06071
vt 9.58509 8.65834
vt 10.1957 8.4054
vt 10.851 8.31913
vt 11.5063 8.4054
vt 12.117 8.65834
vt 12.6414 9.06071
vt 13.0437 9.58509
vt 13.2967 10.1957
f 164/194/25 163/193/25 162/192/25 160/243/25 158/244/25 156/245/25 154/246/25 152/247/25 150/248/25 148/249/25 146/250/25 144/251/25 142/252/25 140/253/25 138/254/25 137/111/25 136/113/25 135/114/25 134/115/25 133/116/25 132/117/25 130/118/25 131/196/25 165/195/25 

vt -10.1957 13.2967
f 125/192/25 24/255/25 161/243/25

f 125/192/25 22/191/25 24/255/25

vt -9.58509 13.0437
f 161/243/25 24/255/25 26/256/25

vt -9.06071 12.6414
f 161/243/25 26/256/25 28/257/25

vt -8.65834 12.117
f 161/243/25 28/257/25 30/258/25

f 161/243/25 30/258/25 57/90/25

vt -8.4054 11.5063
f 57/90/25 30/258/25 32/259/25

f 57/90/25 32/259/25 34/89/25

v -0.213497 0.707416 0.258972
vt 8.4054 -10.1957
f 166/260/25 161/243/25 57/90/25

f 166/260/25 159/244/25 161/243/25

v -0.219922 0.707416 0.243461
vt 8.65834 -9.58509
f 167/261/25 159/244/25 166/260/25

f 167/261/25 157/245/25 159/244/25

v -0.230142 0.707416 0.230142
vt 9.06071 -9.06071
f 168/262/25 157/245/25 167/261/25

f 168/262/25 155/246/25 157/245/25

v -0.243461 0.707416 0.219922
vt 9.58509 -8.65834
f 169/263/25 155/246/25 168/262/25

f 169/263/25 153/247/25 155/246/25

v -0.258972 0.707416 0.213497
vt 10.1957 -8.4054
f 170/264/25 153/247/25 169/263/25

f 170/264/25 151/248/25 153/247/25

v -0.275616 0.707416 0.211306
vt 10.851 -8.31913
f 171/265/25 151/248/25 170/264/25

f 171/265/25 149/249/25 151/248/25

v -0.292261 0.707416 0.213497
vt 11.5063 -8.4054
f 172/266/25 149/249/25 171/265/25

f 172/266/25 147/250/25 149/249/25

f 172/266/25 145/251/25 147/250/25

v -0.307772 0.707416 0.219922
vt 12.117 -8.65834
f 173/267/25 145/251/25 172/266/25

f 173/267/25 143/252/25 145/251/25

v -0.321091 0.707416 0.230142
vt 12.6414 -9.06071
f 174/268/25 143/252/25 173/267/25

v -0.331311 0.707416 0.243461
vt 13.0437 -9.58509
f 175/269/25 143/252/25 174/268/25

f 175/269/25 141/253/25 143/252/25

v -0.337736 0.707416 0.258972
vt 13.2967 -10.1957
f 176/270/25 141/253/25 175/269/25

f 176/270/25 139/254/25 141/253/25

f 77/110/25 139/254/25 176/270/25

f 139/254/25 77/110/25 78/111/25

v -0.339927 0 0.275616
vt 12.505 -1.29448e-16
vn -1 4.36195e-17 1.48374e-15
vn -0.965926 -1.51744e-18 -0.258819
v -0.337736 0 0.258972
vt 11.8441 -1.29448e-16
f 177/271/78 77/12/78 176/13/79 178/272/79 

v -0.337736 0 0.292261
vt 9.67234 -1.10974e-15
vn -0.965926 5.87197e-17 0.258819
vt 9.01138 -1.10974e-15
f 179/273/80 76/16/80 77/17/78 177/274/78 

v -0.331311 0 0.307772
vt 6.20302 -6.81929e-16
vn -0.866025 5.98791e-17 0.5
vt 5.54206 -6.81929e-16
f 180/275/81 75/20/81 76/21/80 179/276/80 

v -0.321091 0 0.321091
vt 2.33349 -1.38021e-15
vn -0.707107 9.54934e-17 0.707107
vt 1.67253 -1.38021e-15
f 181/277/82 74/24/82 75/25/81 180/278/81 

v -0.307772 0 0.331311
vt -1.67253 -1.976e-15
vn -0.5 1.00592e-16 0.866025
vt -2.33349 -1.976e-15
f 182/279/83 73/28/83 74/29/82 181/280/82 

v -0.292261 0 0.337736
vt -5.54206 -1.4682e-15
vn -0.258819 8.24812e-17 0.965926
vt -6.20302 -1.4682e-15
f 183/281/84 72/32/84 73/33/83 182/282/83 

v -0.275616 0 0.339927
vt -9.01138 -1.10974e-15
vn -7.4187e-16 5.75655e-17 1
vt -9.67234 -1.10974e-15
f 184/283/85 70/36/85 72/37/84 183/284/84 

v -0.258972 0 0.337736
vt -11.8441 -4.57198e-16
vn 0.258819 1.18414e-17 0.965926
vt -12.505 -4.57198e-16
f 185/285/86 69/40/86 70/41/85 184/286/85 

v -0.243461 0 0.331311
vt -13.8471 1.26538e-16
vn 0.5 -2.95831e-17 0.866025
vt -14.508 1.26538e-16
f 186/287/87 68/44/87 69/45/86 185/288/86 

v -0.230142 0 0.321091
vt -14.8839 1.9662e-16
vn 0.707107 -1.45295e-17 0.707107
vt -15.5449 1.9662e-16
f 187/289/88 67/48/88 68/49/87 186/290/87 

v -0.219922 0 0.307772
vt -14.8839 -7.48394e-18
vn 0.866025 -7.58921e-19 0.5
vt -15.5449 -7.48394e-18
f 188/291/89 66/48/89 67/49/88 187/292/88 

v -0.213497 0 0.292261
vt -13.8471 -5.46684e-17
vn 0.965926 -2.58178e-17 0.258819
vt -14.508 -5.46684e-17
f 189/293/90 63/44/90 66/45/89 188/294/89 

v -0.211306 0 0.275616
vt -11.8441 -2.3866e-16
vn 1 -3.15096e-17 -4.61919e-16
vt -12.505 -2.3866e-16
f 190/295/91 57/40/91 63/41/90 189/296/90 

v -0.213497 0 0.258972
vt -9.01138 -2.66207e-16
vn 0.965926 -4.74954e-17 -0.258819
vt -9.67234 -2.66207e-16
f 191/297/92 166/36/92 57/37/91 190/298/91 

v -0.219922 0 0.243461
vt -5.54206 -7.77425e-16
vn 0.866025 -3.00595e-17 -0.5
vt -6.20302 -7.77425e-16
f 192/299/93 167/32/93 166/33/92 191/300/92 

v -0.230142 0 0.230142
vt -1.67253 8.92854e-17
vn 0.707107 1.47039e-17 -0.707107
vt -2.33349 8.92854e-17
f 193/301/94 168/28/94 167/29/93 192/302/93 

v -0.243461 0 0.219922
vt 2.33349 2.8112e-16
vn 0.5 -7.05076e-18 -0.866025
vt 1.67253 2.8112e-16
f 194/303/95 169/24/95 168/25/94 193/304/94 

v -0.258972 0 0.213497
vt 6.20302 -4.21296e-16
vn 0.258819 -6.10036e-18 -0.965926
vt 5.54206 -4.21296e-16
f 195/305/96 170/20/96 169/21/95 194/306/95 

v -0.275616 0 0.211306
vt 9.67234 2.32066e-16
vn 9.23838e-16 -3.67205e-18 -1
vt 9.01138 2.32066e-16
f 196/307/97 171/16/97 170/17/96 195/308/96 

v -0.292261 0 0.213497
vt 12.505 -2.13789e-16
vn -0.258819 -3.19309e-17 -0.965926
vt 11.8441 -2.13789e-16
f 197/309/98 172/12/98 171/13/97 196/310/97 

v -0.307772 0 0.219922
vt 14.508 -1.07665e-16
vn -0.5 1.10146e-17 -0.866025
vt 13.8471 -1.07665e-16
f 198/311/99 173/8/99 172/9/98 197/312/98 

v -0.321091 0 0.230142
vt 15.5449 -2.73207e-17
vn -0.707107 4.75663e-17 -0.707107
vt 14.8839 -2.73207e-17
f 199/313/100 174/2/100 173/3/99 198/314/99 

v -0.331311 0 0.243461
vt 15.5449 -1.82591e-16
vn -0.866025 1.33773e-17 -0.5
vt 14.8839 -1.82591e-16
f 200/315/101 175/2/101 174/3/100 199/316/100 

vt 14.508 1.16779e-16
vt 13.8471 1.16779e-16
f 178/317/79 176/8/79 175/9/101 200/318/101 

f 193/262/25 192/261/25 191/260/25 190/90/25 189/96/25 188/99/25 187/100/25 186/101/25 185/102/25 184/103/25 183/105/25 182/106/25 181/107/25 180/108/25 179/109/25 177/110/25 178/270/25 200/269/25 199/268/25 198/267/25 197/266/25 196/265/25 195/264/25 194/263/25 

vn 0 1 -0
f 90/104/102 88/112/102 87/119/102 89/98/102 

f 15/188/25 13/187/25 11/186/25 9/185/25 7/184/25 5/183/25 1/182/25 4/75/25 47/74/25 45/76/25 43/78/25 41/81/25 39/83/25 37/84/25 35/87/25 33/89/25 31/259/25 29/258/25 27/257/25 25/256/25 23/255/25 21/191/25 19/190/25 17/189/25 

