# Alias OBJ Model File
# Exported from SketchUp, (c) 2000-2012 Trimble Navigation Limited
# File units = meters

mtllib Tetris.mtl

g Mesh1 Model

usemtl FrontColor
v -1.25 0 0.5
vt 49.2126 -19.685
vn 0 -1 -0
v -1.25 0 -0.5
vt 49.2126 19.685
v 0.75 0 -0.5
vt -29.5276 19.685
v 0.75 0 0.5
vt -29.5276 -19.685
f 1/1/1 2/2/1 3/3/1 4/4/1 

vt -19.685 0
vn -1 0 -0
vt 19.685 0
v -1.25 1 0.5
vt 19.685 39.3701
v -1.25 1 -0.5
vt -19.685 39.3701
f 2/5/2 1/6/2 5/7/2 6/8/2 

vt -49.2126 0
vn 0 0 1
vt 29.5276 0
v 0.75 1 0.5
vt 29.5276 39.3701
v 1.75 1 0.5
vt 68.8976 39.3701
v 1.75 2 0.5
vt 68.8976 78.7402
v -0.25 2 0.5
vt -9.84252 78.7402
v -0.25 1 0.5
vt -9.84252 39.3701
vt -49.2126 39.3701
f 1/9/3 4/10/3 7/11/3 8/12/3 9/13/3 10/14/3 11/15/3 5/16/3 

vn 1 0 -0
v 0.75 1 -0.5
f 3/6/4 12/7/4 7/8/4 4/5/4 

vt -29.5276 0
vn 0 0 -1
vt 49.2126 0
vt 49.2126 39.3701
v -0.25 1 -0.5
vt 9.84252 39.3701
v -0.25 2 -0.5
vt 9.84252 78.7402
v 1.75 2 -0.5
vt -68.8976 78.7402
v 1.75 1 -0.5
vt -68.8976 39.3701
vt -29.5276 39.3701
f 3/17/5 2/18/5 6/19/5 13/20/5 14/21/5 15/22/5 16/23/5 12/24/5 

vt -49.2126 -19.685
vn 0 1 -0
vt -9.84252 -19.685
vt -9.84252 19.685
vt -49.2126 19.685
f 5/25/6 11/26/6 13/27/6 6/28/6 

vt 19.685 78.7402
vt -19.685 78.7402
f 13/8/2 11/7/2 10/29/2 14/30/2 

vt 68.8976 19.685
vt 68.8976 -19.685
f 15/31/6 14/27/6 10/26/6 9/32/6 

f 9/30/4 8/8/4 16/7/4 15/29/4 

vt -68.8976 19.685
vt -68.8976 -19.685
f 7/4/1 12/3/1 16/33/1 8/34/1 

