# Alias OBJ Model File
# Exported from SketchUp, (c) 2000-2012 Trimble Navigation Limited
# File units = meters

mtllib e.mtl

g Mesh1 E1 Model

usemtl FrontColor
v -0.373515 0.110207 -0.772855
vt -1029.47 492.564
vn -1 2.91854e-16 3.1369e-16
v -0.373515 0 1.19
vt -1055.32 32.2267
v -0.373515 4.11225 1.32741
vt -90.8954 -2.99507e-28
v -0.373515 4.49982 -0.835583
vt 2.26639e-28 507.275
v -0.373515 3.66382 -0.835583
vt -196.063 507.275
v -0.373515 3.20775 0.36852
vt -303.021 224.884
v -0.373515 2.48087 0.36852
vt -473.494 224.884
v -0.373515 2.66664 -0.264522
vt -429.926 373.348
v -0.373515 1.86085 -0.264522
vt -618.902 373.348
v -0.373515 1.57546 0.337733
vt -685.833 232.104
v -0.373515 0.925798 0.337733
vt -838.195 232.104
v -0.373515 1.25906 -1.04281
vt -760.038 555.875
f 1/1/1 2/2/1 3/3/1 4/4/1 5/5/1 6/6/1 7/7/1 8/8/1 9/9/1 10/10/1 11/11/1 12/12/1 

vt -26.9829 5.43909e-13
vn -3.08979e-16 -0.998428 -0.0560579
vt 434.079 5.44225e-13
v 0.373515 0.110207 -0.772855
vt 434.079 175.197
v 0.373515 0 1.19
vt -26.9829 175.197
f 2/13/2 1/14/2 13/15/2 14/16/2 

vt -889.502 3.00191e-13
vn -3.72134e-16 -0.228749 -0.973486
vt -612.731 7.54623e-13
v 0.373515 1.25906 -1.04281
vt -612.731 175.197
vt -889.502 175.197
f 1/17/3 12/18/3 15/19/3 13/20/3 

vt -362.007 9.3998e-13
vn 3.57314e-16 0.972078 0.234656
vt -28.9359 9.3998e-13
v 0.373515 0.925798 0.337733
vt -28.9359 175.197
vt -362.007 175.197
f 12/21/4 11/22/4 16/23/4 15/24/4 

vt -838.195 5.27556e-13
vn -3.1369e-16 -6.48309e-32 -1
vt -685.833 5.27556e-13
v 0.373515 1.57546 0.337733
vt -685.833 175.197
vt -838.195 175.197
f 11/25/5 10/26/5 17/27/5 16/28/5 

vt -83.9429 8.75337e-13
vn -3.98069e-16 -0.903673 -0.428223
vt 72.3563 8.75337e-13
v 0.373515 1.86085 -0.264522
vt 72.3563 175.197
vt -83.9429 175.197
f 10/29/6 9/30/6 18/31/6 17/32/6 

vt -618.902 5.71863e-13
vt -429.926 5.71863e-13
v 0.373515 2.66664 -0.264522
vt -429.926 175.197
vt -618.902 175.197
f 9/33/5 8/34/5 19/35/5 18/36/5 

vt -237.18 7.48096e-13
vn 3.68374e-16 0.959537 0.281584
vt -82.4559 7.48096e-13
v 0.373515 2.48087 0.36852
vt -82.4559 175.197
vt -237.18 175.197
f 8/37/7 7/38/7 20/39/7 19/40/7 

vt -473.494 5.25291e-13
vt -303.021 5.25291e-13
v 0.373515 3.20775 0.36852
vt -303.021 175.197
vt -473.494 175.197
f 7/41/5 6/42/5 21/43/5 20/44/5 

vt 102.973 6.64331e-13
vn -3.84042e-16 -0.935168 -0.354204
vt 404.941 6.64203e-13
v 0.373515 3.66382 -0.835583
vt 404.941 175.197
vt 102.973 175.197
f 6/45/8 5/46/8 22/47/8 21/48/8 

vt -196.063 6.13746e-13
vt 0 6.13746e-13
v 0.373515 4.49982 -0.835583
vt 0 175.197
vt -196.063 175.197
f 5/49/5 4/50/5 23/51/5 22/52/5 

vt -499.323 5.03474e-13
vn 3.42605e-16 0.984323 0.176375
vt 16.0316 9.58329e-13
v 0.373515 4.11225 1.32741
vt 16.0316 175.197
vt -499.323 175.197
f 4/53/9 3/54/9 24/55/9 23/56/9 

vt 90.8447 9.08573e-13
vn 3.03768e-16 -0.0333969 0.999442
vt 1055.81 -9.01171e-16
vt 1055.81 175.197
vt 90.8447 175.197
f 3/57/10 2/58/10 14/59/10 24/60/10 

vt 1055.32 32.2267
vn 1 -2.91854e-16 -3.1369e-16
vt 1029.47 492.564
vt 760.038 555.875
vt 838.195 232.104
vt 685.833 232.104
vt 618.902 373.348
vt 429.926 373.348
vt 473.494 224.884
vt 303.021 224.884
vt 196.063 507.275
vt -8.73401e-14 507.275
vt 90.8954 -5.49575e-14
f 14/61/11 13/62/11 15/63/11 16/64/11 17/65/11 18/66/11 19/67/11 20/68/11 21/69/11 22/70/11 23/71/11 24/72/11 

