# Alias OBJ Model File
# Exported from SketchUp, (c) 2000-2012 Trimble Navigation Limited
# File units = meters

mtllib plate.mtl

g Mesh1 Model

usemtl FrontColor
v 3.02 0 -0
vt -118.898 0
vn 0 -1 -0
v 3.01636 0 0.148184
vt -118.754 -5.83403
v 3.00546 0 0.296012
vt -118.325 -11.654
v 2.98731 0 0.443126
vt -117.611 -17.4459
v 2.96197 0 0.589173
vt -116.613 -23.1958
v 2.92949 0 0.7338
vt -115.334 -28.8898
v 2.88996 0 0.87666
vt -113.778 -34.5142
v 2.84346 0 1.01741
vt -111.947 -40.0554
v 2.79012 0 1.1557
vt -109.847 -45.5002
v 2.73005 0 1.29122
vt -107.482 -50.8353
v 2.6634 0 1.42362
vt -104.858 -56.048
v 2.59034 0 1.55259
vt -101.982 -61.1256
v 2.51104 0 1.67782
vt -98.8598 -66.056
v 2.42569 0 1.79901
vt -95.4995 -70.8272
v 2.33449 0 1.91587
vt -91.9091 -75.4279
v 2.23767 0 2.02811
vt -88.0973 -79.8468
v 2.13546 0 2.13546
vt -84.0733 -84.0733
v 2.02811 0 2.23767
vt -79.8468 -88.0973
v 1.91587 0 2.33449
vt -75.4279 -91.9091
v 1.79901 0 2.42569
vt -70.8272 -95.4995
v 1.67782 0 2.51104
vt -66.056 -98.8598
v 1.55259 0 2.59034
vt -61.1256 -101.982
v 1.42362 0 2.6634
vt -56.048 -104.858
v 1.29122 0 2.73005
vt -50.8353 -107.482
v 1.1557 0 2.79012
vt -45.5002 -109.847
v 1.01741 0 2.84346
vt -40.0554 -111.947
v 0.87666 0 2.88996
vt -34.5142 -113.778
v 0.7338 0 2.92949
vt -28.8898 -115.334
v 0.589173 0 2.96197
vt -23.1958 -116.613
v 0.443126 0 2.98731
vt -17.4459 -117.611
v 0.296012 0 3.00546
vt -11.654 -118.325
v 0.148184 0 3.01636
vt -5.83403 -118.754
v -2.20132e-14 0 3.02
vt 8.6666e-13 -118.898
v -0.148184 0 3.01636
vt 5.83403 -118.754
v -0.296012 0 3.00546
vt 11.654 -118.325
v -0.443126 0 2.98731
vt 17.4459 -117.611
v -0.589173 0 2.96197
vt 23.1958 -116.613
v -0.7338 0 2.92949
vt 28.8898 -115.334
v -0.87666 0 2.88996
vt 34.5142 -113.778
v -1.01741 0 2.84346
vt 40.0554 -111.947
v -1.1557 0 2.79012
vt 45.5002 -109.847
v -1.29122 0 2.73005
vt 50.8353 -107.482
v -1.42362 0 2.6634
vt 56.048 -104.858
v -1.55259 0 2.59034
vt 61.1256 -101.982
v -1.67782 0 2.51104
vt 66.056 -98.8598
v -1.79901 0 2.42569
vt 70.8272 -95.4995
v -1.91587 0 2.33449
vt 75.4279 -91.9091
v -2.02811 0 2.23767
vt 79.8468 -88.0973
v -2.13546 0 2.13546
vt 84.0733 -84.0733
v -2.23767 0 2.02811
vt 88.0973 -79.8468
v -2.33449 0 1.91587
vt 91.9091 -75.4279
v -2.42569 0 1.79901
vt 95.4995 -70.8272
v -2.51104 0 1.67782
vt 98.8598 -66.056
v -2.59034 0 1.55259
vt 101.982 -61.1256
v -2.6634 0 1.42362
vt 104.858 -56.048
v -2.73005 0 1.29122
vt 107.482 -50.8353
v -2.79012 0 1.1557
vt 109.847 -45.5002
v -2.84346 0 1.01741
vt 111.947 -40.0554
v -2.88996 0 0.87666
vt 113.778 -34.5142
v -2.92949 0 0.7338
vt 115.334 -28.8898
v -2.96197 0 0.589173
vt 116.613 -23.1958
v -2.98731 0 0.443126
vt 117.611 -17.4459
v -3.00546 0 0.296012
vt 118.325 -11.654
v -3.01636 0 0.148184
vt 118.754 -5.83403
v -3.02 0 -7.07559e-15
vt 118.898 2.78567e-13
v -3.01636 0 -0.148184
vt 118.754 5.83403
v -3.00546 0 -0.296012
vt 118.325 11.654
v -2.98731 0 -0.443126
vt 117.611 17.4459
v -2.96197 0 -0.589173
vt 116.613 23.1958
v -2.92949 0 -0.7338
vt 115.334 28.8898
v -2.88996 0 -0.87666
vt 113.778 34.5142
v -2.84346 0 -1.01741
vt 111.947 40.0554
v -2.79012 0 -1.1557
vt 109.847 45.5002
v -2.73005 0 -1.29122
vt 107.482 50.8353
v -2.6634 0 -1.42362
vt 104.858 56.048
v -2.59034 0 -1.55259
vt 101.982 61.1256
v -2.51104 0 -1.67782
vt 98.8598 66.056
v -2.42569 0 -1.79901
vt 95.4995 70.8272
v -2.33449 0 -1.91587
vt 91.9091 75.4279
v -2.23767 0 -2.02811
vt 88.0973 79.8468
v -2.13546 0 -2.13546
vt 84.0733 84.0733
v -2.02811 0 -2.23767
vt 79.8468 88.0973
v -1.91587 0 -2.33449
vt 75.4279 91.9091
v -1.79901 0 -2.42569
vt 70.8272 95.4995
v -1.67782 0 -2.51104
vt 66.056 98.8598
v -1.55259 0 -2.59034
vt 61.1256 101.982
v -1.42362 0 -2.6634
vt 56.048 104.858
v -1.29122 0 -2.73005
vt 50.8353 107.482
v -1.1557 0 -2.79012
vt 45.5002 109.847
v -1.01741 0 -2.84346
vt 40.0554 111.947
v -0.87666 0 -2.88996
vt 34.5142 113.778
v -0.7338 0 -2.92949
vt 28.8898 115.334
v -0.589173 0 -2.96197
vt 23.1958 116.613
v -0.443126 0 -2.98731
vt 17.4459 117.611
v -0.296012 0 -3.00546
vt 11.654 118.325
v -0.148184 0 -3.01636
vt 5.83403 118.754
v -3.16795e-15 0 -3.02
vt 1.24723e-13 118.898
v 0.148184 0 -3.01636
vt -5.83403 118.754
v 0.296012 0 -3.00546
vt -11.654 118.325
v 0.443126 0 -2.98731
vt -17.4459 117.611
v 0.589173 0 -2.96197
vt -23.1958 116.613
v 0.7338 0 -2.92949
vt -28.8898 115.334
v 0.87666 0 -2.88996
vt -34.5142 113.778
v 1.01741 0 -2.84346
vt -40.0554 111.947
v 1.1557 0 -2.79012
vt -45.5002 109.847
v 1.29122 0 -2.73005
vt -50.8353 107.482
v 1.42362 0 -2.6634
vt -56.048 104.858
v 1.55259 0 -2.59034
vt -61.1256 101.982
v 1.67782 0 -2.51104
vt -66.056 98.8598
v 1.79901 0 -2.42569
vt -70.8272 95.4995
v 1.91587 0 -2.33449
vt -75.4279 91.9091
v 2.02811 0 -2.23767
vt -79.8468 88.0973
v 2.13546 0 -2.13546
vt -84.0733 84.0733
v 2.23767 0 -2.02811
vt -88.0973 79.8468
v 2.33449 0 -1.91587
vt -91.9091 75.4279
v 2.42569 0 -1.79901
vt -95.4995 70.8272
v 2.51104 0 -1.67782
vt -98.8598 66.056
v 2.59034 0 -1.55259
vt -101.982 61.1256
v 2.6634 0 -1.42362
vt -104.858 56.048
v 2.73005 0 -1.29122
vt -107.482 50.8353
v 2.79012 0 -1.1557
vt -109.847 45.5002
v 2.84346 0 -1.01741
vt -111.947 40.0554
v 2.88996 0 -0.87666
vt -113.778 34.5142
v 2.92949 0 -0.7338
vt -115.334 28.8898
v 2.96197 0 -0.589173
vt -116.613 23.1958
v 2.98731 0 -0.443126
vt -117.611 17.4459
v 3.00546 0 -0.296012
vt -118.325 11.654
v 3.01636 0 -0.148184
vt -118.754 5.83403
f 1/1/1 2/2/1 3/3/1 4/4/1 5/5/1 6/6/1 7/7/1 8/8/1 9/9/1 10/10/1 11/11/1 12/12/1 13/13/1 14/14/1 15/15/1 16/16/1 17/17/1 18/18/1 19/19/1 20/20/1 21/21/1 22/22/1 23/23/1 24/24/1 25/25/1 26/26/1 27/27/1 28/28/1 29/29/1 30/30/1 31/31/1 32/32/1 33/33/1 34/34/1 35/35/1 36/36/1 37/37/1 38/38/1 39/39/1 40/40/1 41/41/1 42/42/1 43/43/1 44/44/1 45/45/1 46/46/1 47/47/1 48/48/1 49/49/1 50/50/1 51/51/1 52/52/1 53/53/1 54/54/1 55/55/1 56/56/1 57/57/1 58/58/1 59/59/1 60/60/1 61/61/1 62/62/1 63/63/1 64/64/1 65/65/1 66/66/1 67/67/1 68/68/1 69/69/1 70/70/1 71/71/1 72/72/1 73/73/1 74/74/1 75/75/1 76/76/1 77/77/1 78/78/1 79/79/1 80/80/1 81/81/1 82/82/1 83/83/1 84/84/1 85/85/1 86/86/1 87/87/1 88/88/1 89/89/1 90/90/1 91/91/1 92/92/1 93/93/1 94/94/1 95/95/1 96/96/1 97/97/1 98/98/1 99/99/1 100/100/1 101/101/1 102/102/1 103/103/1 104/104/1 105/105/1 106/106/1 107/107/1 108/108/1 109/109/1 110/110/1 111/111/1 112/112/1 113/113/1 114/114/1 115/115/1 116/116/1 117/117/1 118/118/1 119/119/1 120/120/1 121/121/1 122/122/1 123/123/1 124/124/1 125/125/1 126/126/1 127/127/1 128/128/1 

vt -2.91789 0
vn 0.998795 0 0.0490677
vt 2.91789 0
vn 1 0 4.18021e-15
v 3.02 0.06 -0
vt 2.91789 2.3622
v 3.01636 0.06 0.148184
vt -2.91789 2.3622
f 2/129/2 1/130/3 129/131/3 130/132/2 

vn 0.998795 0 -0.0490677
v 3.01636 0.06 -0.148184
f 1/129/3 128/130/4 131/131/4 129/132/3 

vn 0.995185 0 -0.0980171
v 3.00546 0.06 -0.296012
f 128/129/4 127/130/5 132/131/5 131/132/4 

vn 0.989177 0 -0.14673
v 2.98731 0.06 -0.443126
f 127/129/5 126/130/6 133/131/6 132/132/5 

vn 0.980785 0 -0.19509
v 2.96197 0.06 -0.589173
f 126/129/6 125/130/7 134/131/7 133/132/6 

vn 0.970031 0 -0.24298
v 2.92949 0.06 -0.7338
f 125/129/7 124/130/8 135/131/8 134/132/7 

vn 0.95694 0 -0.290285
v 2.88996 0.06 -0.87666
f 124/129/8 123/130/9 136/131/9 135/132/8 

vn 0.941544 0 -0.33689
v 2.84346 0.06 -1.01741
f 123/129/9 122/130/10 137/131/10 136/132/9 

vn 0.92388 0 -0.382683
v 2.79012 0.06 -1.1557
f 122/129/10 121/130/11 138/131/11 137/132/10 

vn 0.903989 0 -0.427555
v 2.73005 0.06 -1.29122
f 121/129/11 120/130/12 139/131/12 138/132/11 

vn 0.881921 0 -0.471397
v 2.6634 0.06 -1.42362
f 120/129/12 119/130/13 140/131/13 139/132/12 

vn 0.857729 0 -0.514103
v 2.59034 0.06 -1.55259
f 119/129/13 118/130/14 141/131/14 140/132/13 

vn 0.83147 0 -0.55557
v 2.51104 0.06 -1.67782
f 118/129/14 117/130/15 142/131/15 141/132/14 

vn 0.803208 0 -0.595699
v 2.42569 0.06 -1.79901
f 117/129/15 116/130/16 143/131/16 142/132/15 

vn 0.77301 0 -0.634393
v 2.33449 0.06 -1.91587
f 116/129/16 115/130/17 144/131/17 143/132/16 

vn 0.740951 0 -0.671559
v 2.23767 0.06 -2.02811
f 115/129/17 114/130/18 145/131/18 144/132/17 

vn 0.707107 0 -0.707107
v 2.13546 0.06 -2.13546
f 114/129/18 113/130/19 146/131/19 145/132/18 

vn 0.671559 0 -0.740951
v 2.02811 0.06 -2.23767
f 113/129/19 112/130/20 147/131/20 146/132/19 

vn 0.634393 0 -0.77301
v 1.91587 0.06 -2.33449
f 112/129/20 111/130/21 148/131/21 147/132/20 

vn 0.595699 0 -0.803208
v 1.79901 0.06 -2.42569
f 111/129/21 110/130/22 149/131/22 148/132/21 

vn 0.55557 0 -0.83147
v 1.67782 0.06 -2.51104
f 110/129/22 109/130/23 150/131/23 149/132/22 

vn 0.514103 0 -0.857729
v 1.55259 0.06 -2.59034
f 109/129/23 108/130/24 151/131/24 150/132/23 

vn 0.471397 0 -0.881921
v 1.42362 0.06 -2.6634
f 108/129/24 107/130/25 152/131/25 151/132/24 

vn 0.427555 0 -0.903989
v 1.29122 0.06 -2.73005
f 107/129/25 106/130/26 153/131/26 152/132/25 

vn 0.382683 0 -0.92388
v 1.1557 0.06 -2.79012
f 106/129/26 105/130/27 154/131/27 153/132/26 

vn 0.33689 0 -0.941544
v 1.01741 0.06 -2.84346
f 105/129/27 104/130/28 155/131/28 154/132/27 

vn 0.290285 0 -0.95694
v 0.87666 0.06 -2.88996
f 104/129/28 103/130/29 156/131/29 155/132/28 

vn 0.24298 0 -0.970031
v 0.7338 0.06 -2.92949
f 103/129/29 102/130/30 157/131/30 156/132/29 

vn 0.19509 0 -0.980785
v 0.589173 0.06 -2.96197
f 102/129/30 101/130/31 158/131/31 157/132/30 

vn 0.14673 0 -0.989177
v 0.443126 0.06 -2.98731
f 101/129/31 100/130/32 159/131/32 158/132/31 

vn 0.0980171 0 -0.995185
v 0.296012 0.06 -3.00546
f 100/129/32 99/130/33 160/131/33 159/132/32 

vn 0.0490677 0 -0.998795
v 0.148184 0.06 -3.01636
f 99/129/33 98/130/34 161/131/34 160/132/33 

vn -1.21814e-15 0 -1
v -3.16795e-15 0.06 -3.02
f 98/129/34 97/130/35 162/131/35 161/132/34 

vn -0.0490677 0 -0.998795
v -0.148184 0.06 -3.01636
f 97/129/35 96/130/36 163/131/36 162/132/35 

vn -0.0980171 0 -0.995185
v -0.296012 0.06 -3.00546
f 96/129/36 95/130/37 164/131/37 163/132/36 

vn -0.14673 0 -0.989177
v -0.443126 0.06 -2.98731
f 95/129/37 94/130/38 165/131/38 164/132/37 

vn -0.19509 0 -0.980785
v -0.589173 0.06 -2.96197
f 94/129/38 93/130/39 166/131/39 165/132/38 

vn -0.24298 0 -0.970031
v -0.7338 0.06 -2.92949
f 93/129/39 92/130/40 167/131/40 166/132/39 

vn -0.290285 0 -0.95694
v -0.87666 0.06 -2.88996
f 92/129/40 91/130/41 168/131/41 167/132/40 

vn -0.33689 0 -0.941544
v -1.01741 0.06 -2.84346
f 91/129/41 90/130/42 169/131/42 168/132/41 

vn -0.382683 0 -0.92388
v -1.1557 0.06 -2.79012
f 90/129/42 89/130/43 170/131/43 169/132/42 

vn -0.427555 0 -0.903989
v -1.29122 0.06 -2.73005
f 89/129/43 88/130/44 171/131/44 170/132/43 

vn -0.471397 0 -0.881921
v -1.42362 0.06 -2.6634
f 88/129/44 87/130/45 172/131/45 171/132/44 

vn -0.514103 0 -0.857729
v -1.55259 0.06 -2.59034
f 87/129/45 86/130/46 173/131/46 172/132/45 

vn -0.55557 0 -0.83147
v -1.67782 0.06 -2.51104
f 86/129/46 85/130/47 174/131/47 173/132/46 

vn -0.595699 0 -0.803208
v -1.79901 0.06 -2.42569
f 85/129/47 84/130/48 175/131/48 174/132/47 

vn -0.634393 0 -0.77301
v -1.91587 0.06 -2.33449
f 84/129/48 83/130/49 176/131/49 175/132/48 

vn -0.671559 0 -0.740951
v -2.02811 0.06 -2.23767
f 83/129/49 82/130/50 177/131/50 176/132/49 

vn -0.707107 0 -0.707107
v -2.13546 0.06 -2.13546
f 82/129/50 81/130/51 178/131/51 177/132/50 

vn -0.740951 0 -0.671559
v -2.23767 0.06 -2.02811
f 81/129/51 80/130/52 179/131/52 178/132/51 

vn -0.77301 0 -0.634393
v -2.33449 0.06 -1.91587
f 80/129/52 79/130/53 180/131/53 179/132/52 

vn -0.803208 0 -0.595699
v -2.42569 0.06 -1.79901
f 79/129/53 78/130/54 181/131/54 180/132/53 

vn -0.83147 0 -0.55557
v -2.51104 0.06 -1.67782
f 78/129/54 77/130/55 182/131/55 181/132/54 

vn -0.857729 0 -0.514103
v -2.59034 0.06 -1.55259
f 77/129/55 76/130/56 183/131/56 182/132/55 

vn -0.881921 0 -0.471397
v -2.6634 0.06 -1.42362
f 76/129/56 75/130/57 184/131/57 183/132/56 

vn -0.903989 0 -0.427555
v -2.73005 0.06 -1.29122
f 75/129/57 74/130/58 185/131/58 184/132/57 

vn -0.92388 0 -0.382683
v -2.79012 0.06 -1.1557
f 74/129/58 73/130/59 186/131/59 185/132/58 

vn -0.941544 0 -0.33689
v -2.84346 0.06 -1.01741
f 73/129/59 72/130/60 187/131/60 186/132/59 

vn -0.95694 0 -0.290285
v -2.88996 0.06 -0.87666
f 72/129/60 71/130/61 188/131/61 187/132/60 

vn -0.970031 0 -0.24298
v -2.92949 0.06 -0.7338
f 71/129/61 70/130/62 189/131/62 188/132/61 

vn -0.980785 0 -0.19509
v -2.96197 0.06 -0.589173
f 70/129/62 69/130/63 190/131/63 189/132/62 

vn -0.989177 0 -0.14673
v -2.98731 0.06 -0.443126
f 69/129/63 68/130/64 191/131/64 190/132/63 

vn -0.995185 0 -0.0980171
v -3.00546 0.06 -0.296012
f 68/129/64 67/130/65 192/131/65 191/132/64 

vn -0.998795 0 -0.0490677
v -3.01636 0.06 -0.148184
f 67/129/65 66/130/66 193/131/66 192/132/65 

vn -1 0 -2.43455e-15
v -3.02 0.06 -7.07559e-15
f 66/129/66 65/130/67 194/131/67 193/132/66 

vn -0.998795 0 0.0490677
v -3.01636 0.06 0.148184
f 65/129/67 64/130/68 195/131/68 194/132/67 

vn -0.995185 0 0.0980171
v -3.00546 0.06 0.296012
f 64/129/68 63/130/69 196/131/69 195/132/68 

vn -0.989177 0 0.14673
v -2.98731 0.06 0.443126
f 63/129/69 62/130/70 197/131/70 196/132/69 

vn -0.980785 0 0.19509
v -2.96197 0.06 0.589173
f 62/129/70 61/130/71 198/131/71 197/132/70 

vn -0.970031 0 0.24298
v -2.92949 0.06 0.7338
f 61/129/71 60/130/72 199/131/72 198/132/71 

vn -0.95694 0 0.290285
v -2.88996 0.06 0.87666
f 60/129/72 59/130/73 200/131/73 199/132/72 

vn -0.941544 0 0.33689
v -2.84346 0.06 1.01741
f 59/129/73 58/130/74 201/131/74 200/132/73 

vn -0.92388 0 0.382683
v -2.79012 0.06 1.1557
f 58/129/74 57/130/75 202/131/75 201/132/74 

vn -0.903989 0 0.427555
v -2.73005 0.06 1.29122
f 57/129/75 56/130/76 203/131/76 202/132/75 

vn -0.881921 0 0.471397
v -2.6634 0.06 1.42362
f 56/129/76 55/130/77 204/131/77 203/132/76 

vn -0.857729 0 0.514103
v -2.59034 0.06 1.55259
f 55/129/77 54/130/78 205/131/78 204/132/77 

vn -0.83147 0 0.55557
v -2.51104 0.06 1.67782
f 54/129/78 53/130/79 206/131/79 205/132/78 

vn -0.803208 0 0.595699
v -2.42569 0.06 1.79901
f 53/129/79 52/130/80 207/131/80 206/132/79 

vn -0.77301 0 0.634393
v -2.33449 0.06 1.91587
f 52/129/80 51/130/81 208/131/81 207/132/80 

vn -0.740951 0 0.671559
v -2.23767 0.06 2.02811
f 51/129/81 50/130/82 209/131/82 208/132/81 

vn -0.707107 0 0.707107
v -2.13546 0.06 2.13546
f 50/129/82 49/130/83 210/131/83 209/132/82 

vn -0.671559 0 0.740951
v -2.02811 0.06 2.23767
f 49/129/83 48/130/84 211/131/84 210/132/83 

vn -0.634393 0 0.77301
v -1.91587 0.06 2.33449
f 48/129/84 47/130/85 212/131/85 211/132/84 

vn -0.595699 0 0.803208
v -1.79901 0.06 2.42569
f 47/129/85 46/130/86 213/131/86 212/132/85 

vn -0.55557 0 0.83147
v -1.67782 0.06 2.51104
f 46/129/86 45/130/87 214/131/87 213/132/86 

vn -0.514103 0 0.857729
v -1.55259 0.06 2.59034
f 45/129/87 44/130/88 215/131/88 214/132/87 

vn -0.471397 0 0.881921
v -1.42362 0.06 2.6634
f 44/129/88 43/130/89 216/131/89 215/132/88 

vn -0.427555 0 0.903989
v -1.29122 0.06 2.73005
f 43/129/89 42/130/90 217/131/90 216/132/89 

vn -0.382683 0 0.92388
v -1.1557 0.06 2.79012
f 42/129/90 41/130/91 218/131/91 217/132/90 

vn -0.33689 0 0.941544
v -1.01741 0.06 2.84346
f 41/129/91 40/130/92 219/131/92 218/132/91 

vn -0.290285 0 0.95694
v -0.87666 0.06 2.88996
f 40/129/92 39/130/93 220/131/93 219/132/92 

vn -0.24298 0 0.970031
v -0.7338 0.06 2.92949
f 39/129/93 38/130/94 221/131/94 220/132/93 

vn -0.19509 0 0.980785
v -0.589173 0.06 2.96197
f 38/129/94 37/130/95 222/131/95 221/132/94 

vn -0.14673 0 0.989177
v -0.443126 0.06 2.98731
f 37/129/95 36/130/96 223/131/96 222/132/95 

vn -0.0980171 0 0.995185
v -0.296012 0.06 3.00546
f 36/129/96 35/130/97 224/131/97 223/132/96 

vn -0.0490677 0 0.998795
v -0.148184 0.06 3.01636
f 35/129/97 34/130/98 225/131/98 224/132/97 

vn -7.30539e-15 0 1
v -2.20132e-14 0.06 3.02
f 34/129/98 33/130/99 226/131/99 225/132/98 

vn 0.0490677 0 0.998795
v 0.148184 0.06 3.01636
f 33/129/99 32/130/100 227/131/100 226/132/99 

vn 0.0980171 0 0.995185
v 0.296012 0.06 3.00546
f 32/129/100 31/130/101 228/131/101 227/132/100 

vn 0.14673 0 0.989177
v 0.443126 0.06 2.98731
f 31/129/101 30/130/102 229/131/102 228/132/101 

vn 0.19509 0 0.980785
v 0.589173 0.06 2.96197
f 30/129/102 29/130/103 230/131/103 229/132/102 

vn 0.24298 0 0.970031
v 0.7338 0.06 2.92949
f 29/129/103 28/130/104 231/131/104 230/132/103 

vn 0.290285 0 0.95694
v 0.87666 0.06 2.88996
f 28/129/104 27/130/105 232/131/105 231/132/104 

vn 0.33689 0 0.941544
v 1.01741 0.06 2.84346
f 27/129/105 26/130/106 233/131/106 232/132/105 

vn 0.382683 0 0.92388
v 1.1557 0.06 2.79012
f 26/129/106 25/130/107 234/131/107 233/132/106 

vn 0.427555 0 0.903989
v 1.29122 0.06 2.73005
f 25/129/107 24/130/108 235/131/108 234/132/107 

vn 0.471397 0 0.881921
v 1.42362 0.06 2.6634
f 24/129/108 23/130/109 236/131/109 235/132/108 

vn 0.514103 0 0.857729
v 1.55259 0.06 2.59034
f 23/129/109 22/130/110 237/131/110 236/132/109 

vn 0.55557 0 0.83147
v 1.67782 0.06 2.51104
f 22/129/110 21/130/111 238/131/111 237/132/110 

vn 0.595699 0 0.803208
v 1.79901 0.06 2.42569
f 21/129/111 20/130/112 239/131/112 238/132/111 

vn 0.634393 0 0.77301
v 1.91587 0.06 2.33449
f 20/129/112 19/130/113 240/131/113 239/132/112 

vn 0.671559 0 0.740951
v 2.02811 0.06 2.23767
f 19/129/113 18/130/114 241/131/114 240/132/113 

vn 0.707107 0 0.707107
v 2.13546 0.06 2.13546
f 18/129/114 17/130/115 242/131/115 241/132/114 

vn 0.740951 0 0.671559
v 2.23767 0.06 2.02811
f 17/129/115 16/130/116 243/131/116 242/132/115 

vn 0.77301 0 0.634393
v 2.33449 0.06 1.91587
f 16/129/116 15/130/117 244/131/117 243/132/116 

vn 0.803208 0 0.595699
v 2.42569 0.06 1.79901
f 15/129/117 14/130/118 245/131/118 244/132/117 

vn 0.83147 0 0.55557
v 2.51104 0.06 1.67782
f 14/129/118 13/130/119 246/131/119 245/132/118 

vn 0.857729 0 0.514103
v 2.59034 0.06 1.55259
f 13/129/119 12/130/120 247/131/120 246/132/119 

vn 0.881921 0 0.471397
v 2.6634 0.06 1.42362
f 12/129/120 11/130/121 248/131/121 247/132/120 

vn 0.903989 0 0.427555
v 2.73005 0.06 1.29122
f 11/129/121 10/130/122 249/131/122 248/132/121 

vn 0.92388 0 0.382683
v 2.79012 0.06 1.1557
f 10/129/122 9/130/123 250/131/123 249/132/122 

vn 0.941544 0 0.33689
v 2.84346 0.06 1.01741
f 9/129/123 8/130/124 251/131/124 250/132/123 

vn 0.95694 0 0.290285
v 2.88996 0.06 0.87666
f 8/129/124 7/130/125 252/131/125 251/132/124 

vn 0.970031 0 0.24298
v 2.92949 0.06 0.7338
f 7/129/125 6/130/126 253/131/126 252/132/125 

vn 0.980785 0 0.19509
v 2.96197 0.06 0.589173
f 6/129/126 5/130/127 254/131/127 253/132/126 

vn 0.989177 0 0.14673
v 2.98731 0.06 0.443126
f 5/129/127 4/130/128 255/131/128 254/132/127 

vn 0.995185 0 0.0980171
v 3.00546 0.06 0.296012
f 4/129/128 3/130/129 256/131/129 255/132/128 

f 3/129/129 2/130/2 130/131/2 256/132/129 

vn 0 1 -0
vt 118.898 0
vt -1.24723e-13 118.898
vt -118.898 2.78567e-13
vt -8.6666e-13 -118.898
f 130/64/130 129/133/130 131/66/130 132/67/130 133/68/130 134/69/130 135/70/130 136/71/130 137/72/130 138/73/130 139/74/130 140/75/130 141/76/130 142/77/130 143/78/130 144/79/130 145/80/130 146/81/130 147/82/130 148/83/130 149/84/130 150/85/130 151/86/130 152/87/130 153/88/130 154/89/130 155/90/130 156/91/130 157/92/130 158/93/130 159/94/130 160/95/130 161/96/130 162/134/130 163/98/130 164/99/130 165/100/130 166/101/130 167/102/130 168/103/130 169/104/130 170/105/130 171/106/130 172/107/130 173/108/130 174/109/130 175/110/130 176/111/130 177/112/130 178/113/130 179/114/130 180/115/130 181/116/130 182/117/130 183/118/130 184/119/130 185/120/130 186/121/130 187/122/130 188/123/130 189/124/130 190/125/130 191/126/130 192/127/130 193/128/130 194/135/130 195/2/130 196/3/130 197/4/130 198/5/130 199/6/130 200/7/130 201/8/130 202/9/130 203/10/130 204/11/130 205/12/130 206/13/130 207/14/130 208/15/130 209/16/130 210/17/130 211/18/130 212/19/130 213/20/130 214/21/130 215/22/130 216/23/130 217/24/130 218/25/130 219/26/130 220/27/130 221/28/130 222/29/130 223/30/130 224/31/130 225/32/130 226/136/130 227/34/130 228/35/130 229/36/130 230/37/130 231/38/130 232/39/130 233/40/130 234/41/130 235/42/130 236/43/130 237/44/130 238/45/130 239/46/130 240/47/130 241/48/130 242/49/130 243/50/130 244/51/130 245/52/130 246/53/130 247/54/130 248/55/130 249/56/130 250/57/130 251/58/130 252/59/130 253/60/130 254/61/130 255/62/130 256/63/130 

